<?xml version="1.0" encoding="utf-8"?>
<!-- Generator: Adobe Illustrator 27.9.0, SVG Export Plug-In . SVG Version: 6.00 Build 0)  -->
<svg version="1.1" id="Layer_1" xmlns="http://www.w3.org/2000/svg" xmlns:xlink="http://www.w3.org/1999/xlink" x="0px" y="0px"
	 width="23px" height="23px" viewBox="0 0 23 23" style="enable-background:new 0 0 23 23;" xml:space="preserve">
<style type="text/css">
	.st0{fill:#555555;stroke:#555555;stroke-width:1.4;stroke-miterlimit:10;}
</style>
<g id="search">
	<path class="st0" d="M21.3,20.2l-3.9-3.9h-0.1c3.2-3.8,2.7-9.5-1-12.7s-9.4-2.7-12.6,1s-2.7,9.5,1,12.7c3.3,2.8,8.3,2.8,11.6,0
		c0,0,0,0,0,0.1l3.9,3.9c0.3,0.3,0.8,0.3,1.1,0c0,0,0,0,0,0C21.5,21,21.6,20.5,21.3,20.2C21.3,20.2,21.3,20.2,21.3,20.2z M10.5,18
		C6.3,18,3,14.6,3,10.5S6.3,3,10.5,3s7.5,3.4,7.5,7.5S14.6,18,10.5,18z"/>
</g>
</svg>
