<?xml version="1.0" encoding="utf-8"?>
<!-- Generator: Adobe Illustrator 27.9.0, SVG Export Plug-In . SVG Version: 6.00 Build 0)  -->
<svg version="1.1" id="Layer_1" xmlns="http://www.w3.org/2000/svg" xmlns:xlink="http://www.w3.org/1999/xlink" x="0px" y="0px"
	 width="23px" height="23px" viewBox="0 0 23 23" style="enable-background:new 0 0 23 23;" xml:space="preserve">
<style type="text/css">
	.st0{fill:#555555;}
</style>
<path class="st0" d="M19,20.5c-0.38,0-0.77-0.15-1.06-0.44l-15-15c-0.59-0.59-0.59-1.54,0-2.12c0.59-0.59,1.54-0.59,2.12,0l15,15
	c0.59,0.59,0.59,1.54,0,2.12C19.77,20.35,19.38,20.5,19,20.5z"/>
<path class="st0" d="M4,20.5c0.38,0,0.77-0.15,1.06-0.44l15-15c0.59-0.59,0.59-1.54,0-2.12c-0.59-0.59-1.54-0.59-2.12,0l-15,15
	c-0.59,0.59-0.59,1.54,0,2.12C3.23,20.35,3.62,20.5,4,20.5z"/>
</svg>
