<?xml version="1.0" encoding="utf-8"?>
<!-- Generator: Adobe Illustrator 27.9.0, SVG Export Plug-In . SVG Version: 6.00 Build 0)  -->
<svg version="1.1" id="Layer_1" xmlns="http://www.w3.org/2000/svg" xmlns:xlink="http://www.w3.org/1999/xlink" x="0px" y="0px"
	 width="22px" height="22px" viewBox="0 0 22 22" style="enable-background:new 0 0 22 22;" xml:space="preserve">
<style type="text/css">
	.st0{fill:#FFFFFF;}
</style>
<path class="st0" d="M20.58,12.55H6.42c-0.78,0-1.42-0.67-1.42-1.5s0.63-1.5,1.42-1.5h14.17c0.78,0,1.42,0.67,1.42,1.5
	S21.37,12.55,20.58,12.55z"/>
<path class="st0" d="M20.5,3h-19C0.67,3,0,2.33,0,1.5S0.67,0,1.5,0h19C21.33,0,22,0.67,22,1.5S21.33,3,20.5,3z"/>
<path class="st0" d="M20.5,22.09h-19c-0.83,0-1.5-0.67-1.5-1.5s0.67-1.5,1.5-1.5h19c0.83,0,1.5,0.67,1.5,1.5S21.33,22.09,20.5,22.09
	z"/>
</svg>
