<svg xmlns="http://www.w3.org/2000/svg" width="113.862" height="82.671" viewBox="0 0 113.862 82.671">
  <g id="그룹_200" data-name="그룹 200" transform="translate(-1376.138 -2145)">
    <g id="그룹_62" data-name="그룹 62" transform="translate(1225.616 1475.04)">
      <g id="그룹_61" data-name="그룹 61">
        <g id="그룹_59" data-name="그룹 59">
          <g id="그룹_51" data-name="그룹 51">
            <rect id="사각형_16" data-name="사각형 16" width="1.285" height="9.347" transform="translate(209.863 674.179)" fill="#929292"/>
          </g>
          <g id="그룹_52" data-name="그룹 52">
            <path id="패스_25" data-name="패스 25" d="M199.73,690.275l4.041-8.06,14.092-.339,3.627,8.4Z" fill="#c3c3c3"/>
          </g>
          <g id="그룹_53" data-name="그룹 53">
            <path id="패스_26" data-name="패스 26" d="M227.787,692.081a23.881,23.881,0,0,0,1.056-3.306,124.874,124.874,0,0,1-17.207.944,176.432,176.432,0,0,1-23.853-2.055,33.95,33.95,0,0,0,1.037,3.324,172.468,172.468,0,0,0,22.816,1.9A139.6,139.6,0,0,0,227.787,692.081Z" fill="#005ca5"/>
          </g>
          <g id="그룹_54" data-name="그룹 54">
            <path id="패스_27" data-name="패스 27" d="M211.636,695.194a146.772,146.772,0,0,0,15-.68,20.216,20.216,0,0,0,1.149-2.433,139.6,139.6,0,0,1-16.151.8,172.468,172.468,0,0,1-22.816-1.9,24.857,24.857,0,0,0,1.058,2.462A169.524,169.524,0,0,0,211.636,695.194Z" fill="#e75100"/>
          </g>
          <g id="그룹_55" data-name="그룹 55">
            <path id="패스_28" data-name="패스 28" d="M189.878,693.45a14.84,14.84,0,0,0,1.065,1.851,23.579,23.579,0,0,0,5.189,5.115h24.8a23.533,23.533,0,0,0,3.836-3.3,13.317,13.317,0,0,0,1.871-2.606,146.772,146.772,0,0,1-15,.68A169.524,169.524,0,0,1,189.878,693.45Z" fill="#005ca5"/>
          </g>
          <g id="그룹_56" data-name="그룹 56">
            <path id="패스_29" data-name="패스 29" d="M218.591,673.6l-8.729-3.639v7.278Z" fill="#e75100"/>
          </g>
          <g id="그룹_57" data-name="그룹 57">
            <path id="패스_30" data-name="패스 30" d="M206.7,684.18l-1.494,3.956h4.736V684.11Z" fill="#0092e5"/>
          </g>
          <g id="그룹_58" data-name="그룹 58">
            <path id="패스_31" data-name="패스 31" d="M214.39,684.013l-3.242.07v4.053h4.738Z" fill="#0092e5"/>
          </g>
        </g>
        <g id="그룹_60" data-name="그룹 60" opacity="0.6">
          <path id="패스_32" data-name="패스 32" d="M183.019,688.854a2.293,2.293,0,0,0-1.414-.226,2.19,2.19,0,0,0-1.725,2.611,2.474,2.474,0,0,0,1.961,1.756s3.285.377,3.782,1.589A14.936,14.936,0,0,0,183.9,689.6,2.756,2.756,0,0,0,183.019,688.854Z" fill="#0092e5"/>
        </g>
        <path id="패스_33" data-name="패스 33" d="M262.086,677.328a4.706,4.706,0,0,0-5.479-.254,8.5,8.5,0,0,0-2.969,4.276,5.152,5.152,0,0,0-.543-2.97c-1-1.534-2.283-.912-2.568.054a31.659,31.659,0,0,1-2.074,7.858c-7.1,14.393-23.364,23.95-41.061,23.95-17.336,0-33.29-9.173-40.611-23.078a29.793,29.793,0,0,1-2.409-8.525c-.289-.967-1.574-1.586-2.569-.05a5.156,5.156,0,0,0-.538,2.973,8.509,8.509,0,0,0-2.976-4.272,4.548,4.548,0,0,0-5.479.263s-5.2,4.048.078,14.223c9.387,20.07,30.613,32.966,54.5,32.966,23.8,0,44.957-12.8,54.4-32.736C267.447,681.487,262.086,677.328,262.086,677.328Z" fill="#008dc7"/>
        <path id="패스_34" data-name="패스 34" d="M198.394,737.638h-5.7a1.468,1.468,0,1,0,0,2.936h7.074a1.468,1.468,0,0,0,1.463-1.369l.985-14.675q-1.469-.116-2.921-.3Z" fill="#00266f"/>
        <path id="패스_35" data-name="패스 35" d="M213.316,739.205a1.468,1.468,0,0,0,1.463,1.369h7.074a1.468,1.468,0,1,0,0-2.936h-5.7l-.9-13.377q-1.451.176-2.922.289Z" fill="#00266f"/>
      </g>
      <path id="패스_36" data-name="패스 36" d="M239.2,698.349a14.965,14.965,0,0,1-8.642-2.692c-5.629,5.651-15.807,5.833-21.633.385a17.945,17.945,0,0,1-20.42.367c-2.611,2.52-6.8,3.554-10.921,3.6a48.505,48.505,0,0,0,61.616-1.66Z" fill="#8ad1f5"/>
    </g>
    <g id="그룹_17" data-name="그룹 17" transform="translate(1413.437 2220.9)" opacity="0.33">
      <path id="패스_3" data-name="패스 3" d="M187.144,591.094c0,1.869,8.789,3.385,19.631,3.385s19.633-1.516,19.633-3.385-8.791-3.386-19.633-3.386S187.144,589.223,187.144,591.094Z" transform="translate(-187.144 -587.708)" fill="#00256f"/>
    </g>
  </g>
</svg>
