<svg xmlns="http://www.w3.org/2000/svg" width="66.88" height="94.187" viewBox="0 0 66.88 94.187">
  <g id="그룹_511" data-name="그룹 511" transform="translate(-1428.56 -2938.907)">
    <g id="그룹_15" data-name="그룹 15" transform="translate(1486.381 2999.05)" opacity="0.6">
      <path id="패스_1" data-name="패스 1" d="M239,559.936a3.34,3.34,0,0,0,.475-2.025,3.183,3.183,0,0,0-3.606-2.766,3.6,3.6,0,0,0-2.746,2.664s-.88,4.719-2.687,5.313c0,0,4.939-.459,7.389-1.989A4.007,4.007,0,0,0,239,559.936Z" transform="translate(-230.437 -555.107)" fill="#0092e5"/>
    </g>
    <g id="그룹_16" data-name="그룹 16" transform="translate(1449.585 2982.355)">
      <path id="패스_2" data-name="패스 2" d="M204.233,550.338A7.543,7.543,0,0,0,210,547.672a1.242,1.242,0,1,0-1.9-1.6,5.065,5.065,0,0,1-8.611-1.52,1.241,1.241,0,1,0-2.33.858,7.547,7.547,0,0,0,5.754,4.814A7.753,7.753,0,0,0,204.233,550.338Z" transform="translate(-197.081 -543.741)" fill="#e75100"/>
    </g>
    <g id="그룹_17" data-name="그룹 17" transform="translate(1433.469 3026.323)" opacity="0.33">
      <path id="패스_3" data-name="패스 3" d="M187.144,591.094c0,1.869,8.789,3.385,19.631,3.385s19.633-1.516,19.633-3.385-8.791-3.386-19.633-3.386S187.144,589.223,187.144,591.094Z" transform="translate(-187.144 -587.708)" fill="#00256f"/>
    </g>
    <path id="패스_4" data-name="패스 4" d="M214.592,500.708c11.043-2.03,13.465,4.027,13.465,4.027a5.232,5.232,0,0,1-1.293,5.422,8.607,8.607,0,0,1-4.234,1.646c-.029.045-.063.088-.094.133a4.337,4.337,0,0,1,1.856,1.109c1.217,1.409.25,2.486-.774,2.493a25.225,25.225,0,0,0-8.062-.282c-14.893,2.82-25.99,16.87-25.806,27.855a13.584,13.584,0,1,0,26.683-3.442c-.049-.176-.1-.358-.148-.528-.117-.37-.243-.738-.393-1.1-.065-.158-.11-.3-.159-.442a40.8,40.8,0,0,0-2.469-4.58c-.389-.946.235-2.253,2-1.671a4.61,4.61,0,0,1,1.934,1.505,8.641,8.641,0,0,1-.221-4.9,4.639,4.639,0,0,1,4.506-3.278s6.75-.109,9.02,11.454a28.084,28.084,0,1,1-55.253,7.226C174.856,525.715,190.932,504.133,214.592,500.708Z" transform="translate(1253.412 2438.615)" fill="#008dc7"/>
    <path id="패스_5" data-name="패스 5" d="M193.381,578.76l5.229-3.392a1.468,1.468,0,0,1,1.6,2.463l-6.72,4.359a1.465,1.465,0,0,1-.8.236,1.4,1.4,0,0,1-.439-.068,1.465,1.465,0,0,1-.92-.85l-4.166-10.3a27.191,27.191,0,0,0,3-.412Z" transform="translate(1271.838 2438.615)" fill="#00266f"/>
    <path id="패스_6" data-name="패스 6" d="M217.31,568.1a1.471,1.471,0,0,1,2,.563l2.936,5.232,5.443-7.441a28.355,28.355,0,0,0,2.51,1.537l-6.932,9.478a1.468,1.468,0,0,1-1.183.6c-.03,0-.059,0-.088,0a1.461,1.461,0,0,1-1.192-.746l-4.052-7.223A1.468,1.468,0,0,1,217.31,568.1Z" transform="translate(1213.122 2438.615)" fill="#00266f"/>
  </g>
</svg>
