<?xml version="1.0" encoding="utf-8"?>
<!-- Generator: Adobe Illustrator 27.9.0, SVG Export Plug-In . SVG Version: 6.00 Build 0)  -->
<svg version="1.1" id="레이어_1" xmlns="http://www.w3.org/2000/svg" xmlns:xlink="http://www.w3.org/1999/xlink" x="0px"
	 y="0px" width="38px" height="38px" viewBox="0 0 38 38" style="enable-background:new 0 0 38 38;" xml:space="preserve">
<style type="text/css">
	.st0{opacity:0.35;}
	.st1{fill:#FFBB88;}
	.st2{fill:#0044CC;}
	.st3{opacity:0.15;}
	.st4{fill-rule:evenodd;clip-rule:evenodd;fill:#0055FF;}
</style>
<g>
	<g class="st0">
		<ellipse class="st1" cx="15.63" cy="16.31" rx="4.04" ry="6.06"/>
	</g>
	<g>
		<path class="st2" d="M19.34,23.35c-2.3,0-4.43-1.3-5.48-3.34c-1.1-0.1-1.93-0.95-1.93-1.99c0-0.8,0.49-1.51,1.25-1.83v-0.67
			c0-3.4,2.76-6.16,6.16-6.16s6.16,2.76,6.16,6.16v0.67c0.76,0.32,1.25,1.02,1.25,1.83c0,1.05-0.85,1.91-1.93,1.99
			C23.76,22.05,21.63,23.35,19.34,23.35z M19.34,10.04c-3.03,0-5.49,2.46-5.49,5.49v1.16l-0.24,0.07c-0.6,0.17-1,0.68-1,1.27
			c0,0.73,0.64,1.33,1.43,1.33h0.21l0.13,0.19c0.9,1.9,2.85,3.14,4.96,3.14c2.11,0,4.05-1.23,4.96-3.14l0.09-0.19h0.21c0,0,0,0,0,0
			c0.83,0,1.47-0.6,1.47-1.33c0-0.58-0.4-1.09-1-1.27l-0.24-0.07v-1.16C24.82,12.5,22.36,10.04,19.34,10.04z"/>
	</g>
	<g class="st3">
		<path class="st4" d="M32.94,27.38c-2.83,2.45-6.53,3.94-10.57,3.94c-8.93,0-16.16-7.24-16.16-16.16c0-2.99,0.81-5.78,2.22-8.18
			C5,9.93,2.84,14.31,2.84,19.19c0,8.93,7.24,16.16,16.16,16.16C24.94,35.36,30.13,32.15,32.94,27.38z"/>
	</g>
	<g>
		<path class="st2" d="M8.22,31.12c-0.01,0-0.03,0-0.04,0C8,31.1,7.87,30.93,7.89,30.74l0.34-2.59c0.23-1.35,0.97-2.5,2.1-3.26
			c1.13-0.76,2.48-1,3.8-0.7l3.53,0.81c0.93,0.21,1.91,0.21,2.83,0l3.59-0.81c1.34-0.3,2.7-0.06,3.85,0.7
			c1.15,0.75,1.92,1.91,2.18,3.25l0.34,2.12c0.03,0.18-0.1,0.36-0.28,0.39c-0.19,0.03-0.36-0.1-0.39-0.28l-0.34-2.11
			c-0.22-1.16-0.89-2.15-1.88-2.8c-0.99-0.65-2.18-0.86-3.33-0.6l-3.59,0.81c-1.02,0.23-2.11,0.23-3.13,0l-3.53-0.81
			c-1.14-0.26-2.3-0.04-3.27,0.61c-0.97,0.65-1.61,1.65-1.81,2.8l-0.34,2.58C8.54,31,8.39,31.12,8.22,31.12z"/>
	</g>
	<g>
		<path class="st2" d="M19,35.5C9.9,35.5,2.5,28.1,2.5,19S9.9,2.5,19,2.5S35.5,9.9,35.5,19S28.1,35.5,19,35.5z M19,3.17
			c-8.73,0-15.83,7.1-15.83,15.83S10.27,34.83,19,34.83S34.83,27.73,34.83,19S27.73,3.17,19,3.17z"/>
	</g>
</g>
</svg>
