<?xml version="1.0" encoding="utf-8"?>
<!-- Generator: Adobe Illustrator 27.9.0, SVG Export Plug-In . SVG Version: 6.00 Build 0)  -->
<svg version="1.1" id="레이어_1" xmlns="http://www.w3.org/2000/svg" xmlns:xlink="http://www.w3.org/1999/xlink" x="0px"
	 y="0px" width="38px" height="38px" viewBox="0 0 38 38" style="enable-background:new 0 0 38 38;" xml:space="preserve">
<style type="text/css">
	.st0{fill:#0044CC;}
	.st1{opacity:0.1;}
	.st2{fill-rule:evenodd;clip-rule:evenodd;fill:#0055FF;}
	.st3{opacity:0.8;}
	.st4{fill:#FF6B00;}
	.st5{fill:#FFFFFF;}
</style>
<g>
	<g>
		<path class="st0" d="M35.15,35.5H2.85c-0.19,0-0.35-0.16-0.35-0.35V2.85c0-0.19,0.16-0.35,0.35-0.35h32.3
			c0.19,0,0.35,0.16,0.35,0.35v32.3C35.5,35.34,35.34,35.5,35.15,35.5z M3.2,34.8h31.6V3.2H3.2V34.8z"/>
	</g>
	<g>
		<path class="st0" d="M19,30.94c-0.05,0-0.11-0.01-0.15-0.04l-4-1.97c-3.37-1.66-5.68-5.02-6.02-8.75l0-7.51
			c0-0.13,0.08-0.26,0.19-0.31l9.83-4.9c0.1-0.05,0.22-0.05,0.31,0l9.83,4.9c0.12,0.06,0.19,0.18,0.19,0.31v7.48
			c-0.72,3.89-3.11,7.13-6.56,8.94l-3.45,1.81C19.11,30.92,19.06,30.94,19,30.94z M9.52,12.88v7.26c0.32,3.46,2.48,6.6,5.63,8.15
			L19,30.19l3.3-1.73c3.26-1.71,5.52-4.77,6.19-8.38l-0.01-7.2L19,8.16L9.52,12.88z"/>
	</g>
	<g class="st1">
		<path class="st2" d="M26.02,19.35c0,0.22-0.01,0.45-0.04,0.67c-0.2-0.98-1.15-1.72-2.3-1.72c-1.17,0-2.13,0.76-2.31,1.76h-0.06
			c-0.19-1-1.15-1.76-2.31-1.76c-1.16,0-2.12,0.76-2.31,1.76h-0.06c-0.18-1-1.15-1.76-2.31-1.76c-1.14,0-2.1,0.74-2.3,1.72
			c-0.03-0.22-0.04-0.44-0.04-0.67c0-3.49,3.15-6.32,7.02-6.32S26.02,15.86,26.02,19.35z"/>
	</g>
	<g>
		<path class="st0" d="M25.98,20.02l-0.34,0.07c0.04,0.17,0.19,0.29,0.37,0.28c0.17-0.01,0.31-0.13,0.33-0.31L25.98,20.02z
			 M21.37,20.05v0.35c0.17,0,0.32-0.12,0.34-0.29L21.37,20.05z M21.31,20.05l-0.35,0.06c0.04,0.17,0.18,0.29,0.35,0.29V20.05z
			 M16.69,20.05v0.35c0.17,0,0.32-0.12,0.34-0.29L16.69,20.05z M16.63,20.05l-0.34,0.06c0.03,0.17,0.18,0.29,0.34,0.29V20.05z
			 M12.02,20.02l-0.35,0.04c0.02,0.17,0.16,0.3,0.33,0.31c0.18,0.01,0.33-0.11,0.36-0.28L12.02,20.02z M26.33,20.06
			c0.03-0.23,0.04-0.47,0.04-0.71h-0.7c0,0.21-0.01,0.42-0.04,0.63L26.33,20.06z M23.68,18.65c1,0,1.79,0.65,1.95,1.44l0.69-0.14
			c-0.23-1.17-1.35-2-2.64-2V18.65z M21.72,20.12c0.15-0.81,0.95-1.47,1.97-1.47v-0.7c-1.31,0-2.44,0.86-2.65,2.04L21.72,20.12z
			 M21.31,20.4h0.06v-0.7h-0.06V20.4z M19,18.65c1.01,0,1.81,0.66,1.96,1.47l0.7-0.13c-0.22-1.19-1.35-2.04-2.65-2.04V18.65z
			 M17.03,20.12c0.15-0.81,0.95-1.47,1.97-1.47v-0.7c-1.31,0-2.44,0.86-2.65,2.04L17.03,20.12z M16.63,20.4h0.06v-0.7h-0.06V20.4z
			 M14.32,18.65c1.02,0,1.81,0.66,1.97,1.47l0.69-0.13c-0.22-1.19-1.35-2.04-2.65-2.04V18.65z M12.36,20.09
			c0.17-0.79,0.96-1.44,1.96-1.44v-0.7c-1.28,0-2.4,0.84-2.64,2L12.36,20.09z M11.63,19.35c0,0.24,0.01,0.48,0.04,0.71l0.7-0.08
			c-0.02-0.2-0.04-0.41-0.04-0.62H11.63z M19,12.68c-4.04,0-7.37,2.96-7.37,6.67h0.7c0-3.26,2.95-5.97,6.67-5.97V12.68z
			 M26.37,19.35c0-3.71-3.34-6.67-7.37-6.67v0.7c3.72,0,6.67,2.7,6.67,5.97H26.37z"/>
	</g>
	<g>
		<path class="st0" d="M19,13.38c-0.19,0-0.35-0.16-0.35-0.35v-1.05c0-0.19,0.16-0.35,0.35-0.35s0.35,0.16,0.35,0.35v1.05
			C19.35,13.23,19.19,13.38,19,13.38z"/>
	</g>
	<g class="st3">
		<path class="st4" d="M19.64,26.37c-0.19,0-0.35-0.16-0.35-0.35v-2.85c0-0.19,0.16-0.35,0.35-0.35c0.19,0,0.35,0.16,0.35,0.35v2.85
			C19.99,26.22,19.83,26.37,19.64,26.37z"/>
	</g>
	<g class="st3">
		<path class="st4" d="M19.64,23.52h-1.19c-0.19,0-0.35-0.16-0.35-0.35c0-0.19,0.16-0.35,0.35-0.35h1.19c0.19,0,0.35,0.16,0.35,0.35
			C19.99,23.36,19.83,23.52,19.64,23.52z"/>
	</g>
	<g class="st3">
		<path class="st4" d="M20.83,26.37h-2.37c-0.19,0-0.35-0.16-0.35-0.35c0-0.19,0.16-0.35,0.35-0.35h2.37c0.19,0,0.35,0.16,0.35,0.35
			C21.18,26.22,21.02,26.37,20.83,26.37z"/>
	</g>
	<g>
		<g>
			<circle class="st5" cx="19.09" cy="21.2" r="0.79"/>
		</g>
		<g class="st3">
			<path class="st4" d="M19.09,22.34c-0.63,0-1.14-0.51-1.14-1.14c0-0.63,0.51-1.14,1.14-1.14s1.14,0.51,1.14,1.14
				C20.23,21.83,19.72,22.34,19.09,22.34z M19.09,20.76c-0.24,0-0.44,0.2-0.44,0.44c0,0.24,0.2,0.44,0.44,0.44s0.44-0.2,0.44-0.44
				C19.53,20.96,19.33,20.76,19.09,20.76z"/>
		</g>
	</g>
</g>
</svg>
