<?xml version="1.0" encoding="utf-8"?>
<!-- Generator: Adobe Illustrator 27.9.0, SVG Export Plug-In . SVG Version: 6.00 Build 0)  -->
<svg version="1.1" id="레이어_1" xmlns="http://www.w3.org/2000/svg" xmlns:xlink="http://www.w3.org/1999/xlink" x="0px"
	 y="0px" width="38px" height="38px" viewBox="0 0 38 38" style="enable-background:new 0 0 38 38;" xml:space="preserve">
<style type="text/css">
	.st0{opacity:0.2;}
	.st1{fill:#0055FF;}
	.st2{fill:#FFFFFF;}
	.st3{fill:#0044CC;}
	.st4{opacity:0.6;}
	.st5{fill:#FF6B00;}
</style>
<g>
	<g class="st0">
		<path class="st1" d="M7.77,17.44v-3.31l2.78-2.93l0.5-0.44c0.13-0.11,0.29-0.18,0.47-0.18h0.69h11.01v4.29v12.35
			c0,1.55-1.26,2.81-2.81,2.81H7.77V17.44z"/>
	</g>
	<g>
		<path class="st2" d="M10.57,16.11V13.1l2.53-2.67l0.43-0.39c0.13-0.11,0.29-0.18,0.47-0.18h0.61h10.01v3.9v10.97
			c0,1.54-1.26,2.81-2.81,2.81H10.57V16.11z"/>
	</g>
	<g>
		<path class="st3" d="M35.15,35.5H2.85c-0.19,0-0.35-0.16-0.35-0.35V2.85c0-0.19,0.16-0.35,0.35-0.35h32.3
			c0.19,0,0.35,0.16,0.35,0.35v32.3C35.5,35.34,35.34,35.5,35.15,35.5z M3.2,34.8h31.6V3.2H3.2V34.8z"/>
	</g>
	<g>
		<path class="st3" d="M14.61,9.87V9.52h-0.35v0.35H14.61z M10.57,13.1l-0.25-0.24l-0.1,0.1v0.14H10.57z M24.62,9.87h0.35
			c0-0.2-0.16-0.35-0.35-0.35V9.87z M14.61,13.29v0.35c0.19,0,0.35-0.15,0.35-0.35H14.61z M12.26,12.94c-0.19,0-0.35,0.16-0.35,0.35
			c0,0.2,0.16,0.35,0.35,0.35V12.94z M13.36,10.67c0.13-0.14,0.13-0.36-0.01-0.49c-0.14-0.13-0.36-0.13-0.5,0.01L13.36,10.67z
			 M10.57,27.56h-0.35c0,0.19,0.16,0.35,0.35,0.35V27.56z M10.22,13.1v3.01h0.7V13.1H10.22z M24.97,13.78v-3.9h-0.7v3.9H24.97z
			 M24.62,9.52H14.61v0.7h10.01V9.52z M14.26,9.87v3.42h0.7V9.87H14.26z M14.61,12.94h-2.35v0.7h2.35V12.94z M10.83,13.34l2.53-2.67
			l-0.51-0.48l-2.53,2.67L10.83,13.34z M24.27,13.78v10.97h0.7V13.78H24.27z M21.81,27.21H10.57v0.7h11.23V27.21z M10.93,27.56
			V16.11h-0.7v11.44H10.93z M24.27,24.75c0,1.36-1.1,2.46-2.46,2.46v0.7c1.74,0,3.16-1.42,3.16-3.16H24.27z"/>
	</g>
	<g class="st4">
		<path class="st5" d="M18.3,16.54h-3.86c-0.19,0-0.35-0.16-0.35-0.35c0-0.19,0.16-0.35,0.35-0.35h3.86c0.19,0,0.35,0.16,0.35,0.35
			C18.65,16.39,18.49,16.54,18.3,16.54z"/>
	</g>
	<g class="st4">
		<path class="st5" d="M18.3,20.76h-3.86c-0.19,0-0.35-0.16-0.35-0.35c0-0.19,0.16-0.35,0.35-0.35h3.86c0.19,0,0.35,0.16,0.35,0.35
			C18.65,20.6,18.49,20.76,18.3,20.76z"/>
	</g>
	<g class="st4">
		<path class="st5" d="M20.05,18.65h-5.62c-0.19,0-0.35-0.16-0.35-0.35c0-0.19,0.16-0.35,0.35-0.35h5.62c0.19,0,0.35,0.16,0.35,0.35
			C20.4,18.49,20.25,18.65,20.05,18.65z"/>
	</g>
	<g>
		<path class="st2" d="M27.94,13.3c0.71-0.73,1.87-0.75,2.6-0.04l0,0c0.73,0.7,0.75,1.87,0.04,2.6l-5.46,5.65
			c-0.97,1-2.2,1.7-3.55,2.02l-1.25,0.29l0.25-1.26c0.28-1.36,0.94-2.61,1.9-3.62L27.94,13.3z"/>
		<path class="st3" d="M20.32,24.17c-0.09,0-0.18-0.03-0.24-0.1c-0.09-0.08-0.12-0.21-0.1-0.32l0.25-1.26
			c0.29-1.42,0.98-2.73,1.99-3.79l5.47-5.65c0.41-0.42,0.95-0.66,1.54-0.67c0.58,0.01,1.14,0.21,1.56,0.62
			c0.42,0.4,0.66,0.95,0.67,1.53c0.01,0.59-0.21,1.14-0.62,1.56l-5.46,5.65c-1.02,1.05-2.3,1.78-3.72,2.12l-1.25,0.29
			C20.38,24.17,20.35,24.17,20.32,24.17z M29.26,13.09c-0.01,0-0.02,0-0.02,0c-0.4,0.01-0.77,0.17-1.05,0.45l0,0l-5.46,5.65
			c-0.92,0.96-1.55,2.15-1.81,3.44l-0.15,0.72l0.72-0.17c1.29-0.31,2.45-0.97,3.38-1.92l5.46-5.65c0.28-0.29,0.42-0.66,0.42-1.06
			c-0.01-0.4-0.17-0.77-0.45-1.04C30.02,13.24,29.65,13.09,29.26,13.09z"/>
	</g>
</g>
</svg>
