<?xml version="1.0" encoding="utf-8"?>
<!-- Generator: Adobe Illustrator 27.9.0, SVG Export Plug-In . SVG Version: 6.00 Build 0)  -->
<svg version="1.1" id="레이어_1" xmlns="http://www.w3.org/2000/svg" xmlns:xlink="http://www.w3.org/1999/xlink" x="0px"
	 y="0px" width="38px" height="38px" viewBox="0 0 38 38" style="enable-background:new 0 0 38 38;" xml:space="preserve">
<style type="text/css">
	.st0{opacity:0.2;}
	.st1{fill:#0055FF;}
	.st2{fill:#FFFFFF;}
	.st3{fill:#0044CC;}
	.st4{opacity:0.8;}
	.st5{fill:#FF6B00;}
</style>
<g>
	<g class="st0">
		<path class="st1" d="M12.89,16.28h9.51c0.38,0,0.68,0.3,0.68,0.68v6.79c0,0.38-0.3,0.68-0.68,0.68h-9.51
			c-0.38,0-0.68-0.3-0.68-0.68v-6.79C12.21,16.59,12.51,16.28,12.89,16.28z"/>
	</g>
	<g>
		<circle class="st2" cx="23.42" cy="22.74" r="5.77"/>
	</g>
	<g>
		<path class="st3" d="M16.96,24.55h-4.75c-1.31,0-2.38-1.07-2.38-2.38V11.53c0-0.19,0.15-0.34,0.34-0.34h5.98
			c0.51,0,0.99,0.22,1.31,0.62l1.27,1.53h7.74c0.19,0,0.34,0.15,0.34,0.34v2.26c0,0.19-0.15,0.34-0.34,0.34s-0.34-0.15-0.34-0.34
			v-1.92h-7.56c-0.1,0-0.2-0.05-0.26-0.12l-1.37-1.66c-0.19-0.24-0.48-0.37-0.79-0.37h-5.65v10.3c0,0.94,0.76,1.7,1.7,1.7h4.75
			c0.19,0,0.34,0.15,0.34,0.34S17.15,24.55,16.96,24.55z"/>
	</g>
	<g>
		<path class="st3" d="M15.26,13.79h-2.94c-0.19,0-0.34-0.15-0.34-0.34s0.15-0.34,0.34-0.34h2.94c0.19,0,0.34,0.15,0.34,0.34
			S15.45,13.79,15.26,13.79z"/>
	</g>
	<g>
		<path class="st3" d="M19,37c-0.06,0-0.12-0.02-0.17-0.05L3.54,28.12c-0.11-0.06-0.17-0.17-0.17-0.29V10.17
			c0-0.12,0.06-0.23,0.17-0.29l15.29-8.83c0.1-0.06,0.23-0.06,0.34,0l15.29,8.83c0.11,0.06,0.17,0.17,0.17,0.29v17.66
			c0,0.12-0.06,0.23-0.17,0.29l-15.29,8.83C19.12,36.98,19.06,37,19,37z M4.04,27.63L19,36.27l14.96-8.63V10.37L19,1.73L4.04,10.37
			V27.63z"/>
	</g>
	<g>
		<path class="st3" d="M23.09,27.15c-0.15,0-0.3-0.01-0.45-0.02c-1.27-0.1-2.47-0.65-3.39-1.56c-0.91-0.91-1.47-2.1-1.58-3.38
			c-0.11-1.27,0.23-2.55,0.97-3.6c0.74-1.05,1.83-1.81,3.07-2.14c1.24-0.33,2.56-0.21,3.72,0.33c0.17,0.08,0.24,0.28,0.16,0.45
			c-0.08,0.17-0.28,0.24-0.45,0.16c-1.02-0.47-2.17-0.58-3.26-0.29c-1.09,0.29-2.04,0.96-2.69,1.88c-0.65,0.92-0.95,2.04-0.85,3.15
			c0.1,1.11,0.59,2.16,1.38,2.95c0.8,0.79,1.85,1.27,2.97,1.36c1.11,0.1,2.24-0.21,3.16-0.86c0.92-0.64,1.58-1.6,1.87-2.69
			c0.23-0.87,0.21-1.79-0.06-2.64c-0.06-0.18,0.04-0.37,0.22-0.43c0.18-0.06,0.37,0.04,0.43,0.22c0.31,0.98,0.34,2.02,0.07,3.02
			c-0.33,1.24-1.09,2.33-2.13,3.07C25.31,26.8,24.2,27.15,23.09,27.15z"/>
	</g>
	<g>
		<path class="st3" d="M23.08,17.81c-0.19,0-0.34-0.15-0.34-0.34v-1.7c0-0.19,0.15-0.34,0.34-0.34s0.34,0.15,0.34,0.34v1.7
			C23.42,17.66,23.27,17.81,23.08,17.81z"/>
	</g>
	<g>
		<path class="st3" d="M23.08,28.01c-0.19,0-0.34-0.15-0.34-0.34v-1.7c0-0.19,0.15-0.34,0.34-0.34s0.34,0.15,0.34,0.34v1.7
			C23.42,27.85,23.27,28.01,23.08,28.01z"/>
	</g>
	<g>
		<path class="st3" d="M29.03,22.06h-1.7c-0.19,0-0.34-0.15-0.34-0.34s0.15-0.34,0.34-0.34h1.7c0.19,0,0.34,0.15,0.34,0.34
			S29.22,22.06,29.03,22.06z"/>
	</g>
	<g>
		<path class="st3" d="M18.83,22.06h-1.7c-0.19,0-0.34-0.15-0.34-0.34s0.15-0.34,0.34-0.34h1.7c0.19,0,0.34,0.15,0.34,0.34
			S19.02,22.06,18.83,22.06z"/>
	</g>
	<g class="st4">
		<path class="st5" d="M23.08,24.32c-1.44,0-2.6-1.17-2.6-2.6c0-1.44,1.17-2.6,2.6-2.6c1.44,0,2.6,1.17,2.6,2.6
			C25.68,23.15,24.51,24.32,23.08,24.32z M23.08,19.79c-1.06,0-1.92,0.86-1.92,1.92c0,1.06,0.86,1.92,1.92,1.92S25,22.78,25,21.72
			C25,20.66,24.14,19.79,23.08,19.79z"/>
	</g>
</g>
</svg>
