<?xml version="1.0" encoding="utf-8"?>
<!-- Generator: Adobe Illustrator 27.9.0, SVG Export Plug-In . SVG Version: 6.00 Build 0)  -->
<svg version="1.1" id="레이어_1" xmlns="http://www.w3.org/2000/svg" xmlns:xlink="http://www.w3.org/1999/xlink" x="0px"
	 y="0px" width="38px" height="38px" viewBox="0 0 38 38" style="enable-background:new 0 0 38 38;" xml:space="preserve">
<style type="text/css">
	.st0{opacity:0.2;}
	.st1{fill:#0055FF;}
	.st2{fill:#FFFFFF;}
	.st3{fill:#0044CC;}
	.st4{fill:#FF6B00;}
</style>
<g>
	<g class="st0">
		<path class="st1" d="M12.21,17.64c0-0.37,0.31-0.68,0.68-0.68h9.51c0.37,0,0.68,0.3,0.68,0.68v5.15c0,0.68-1.38,1.49-2.06,1.43
			c-1.8-0.14-4.57,0.31-8.04,0.79c-0.41,0.05-0.77-0.26-0.77-0.67V17.64z"/>
	</g>
	<g>
		<circle class="st2" cx="23.08" cy="22.4" r="6.11"/>
	</g>
	<g>
		<path class="st3" d="M16.96,25.23h-4.75c-1.31,0-2.38-1.07-2.38-2.38V12.21c0-0.19,0.15-0.34,0.34-0.34h5.3
			c0.51,0,0.98,0.22,1.31,0.62l1.27,1.53h8.42c0.19,0,0.34,0.15,0.34,0.34v2.26c0,0.19-0.15,0.34-0.34,0.34
			c-0.19,0-0.34-0.15-0.34-0.34V14.7h-8.24c-0.1,0-0.2-0.05-0.26-0.12l-1.37-1.66c-0.2-0.24-0.48-0.37-0.78-0.37h-4.96v10.3
			c0,0.94,0.76,1.7,1.7,1.7h4.75c0.19,0,0.34,0.15,0.34,0.34S17.15,25.23,16.96,25.23z"/>
	</g>
	<g>
		<path class="st3" d="M15.26,14.47h-2.94c-0.19,0-0.34-0.15-0.34-0.34s0.15-0.34,0.34-0.34h2.94c0.19,0,0.34,0.15,0.34,0.34
			S15.45,14.47,15.26,14.47z"/>
	</g>
	<g>
		<path class="st3" d="M19,37c-0.06,0-0.12-0.02-0.17-0.05l-15.3-8.83c-0.1-0.06-0.17-0.17-0.17-0.29V10.17
			c0-0.12,0.07-0.23,0.17-0.29l15.3-8.83c0.1-0.06,0.23-0.06,0.34,0l15.3,8.83c0.1,0.06,0.17,0.17,0.17,0.29v17.66
			c0,0.12-0.07,0.23-0.17,0.29l-15.3,8.83C19.12,36.98,19.06,37,19,37z M4.04,27.63L19,36.27l14.96-8.63V10.37L19,1.73L4.04,10.37
			V27.63z"/>
	</g>
	<g>
		<path class="st3" d="M17.45,22.48c0,0.18,0.16,0.33,0.35,0.33c0.18,0,0.33-0.16,0.33-0.35L17.45,22.48z M18.59,24.71
			c-0.18-0.05-0.37,0.06-0.41,0.24l-0.79,2.95c-0.05,0.18,0.06,0.37,0.24,0.42c0.18,0.05,0.37-0.06,0.41-0.24l0.71-2.62l2.62,0.7
			c0.18,0.05,0.37-0.06,0.41-0.24c0.05-0.18-0.05-0.37-0.24-0.41L18.59,24.71z M26.66,25.81c-1.88,1.98-5.01,2.05-6.99,0.17
			l-0.47,0.5c2.25,2.14,5.81,2.05,7.95-0.2L26.66,25.81z M19.5,18.99c1.88-1.98,5.01-2.05,6.99-0.17l0.47-0.49
			c-2.25-2.14-5.81-2.06-7.95,0.19L19.5,18.99z M26.49,18.82c1.98,1.88,2.05,5.01,0.17,6.99l0.5,0.47c2.14-2.25,2.05-5.81-0.2-7.95
			L26.49,18.82z M18.13,22.46c-0.02-1.25,0.43-2.5,1.37-3.48L19,18.52c-1.05,1.11-1.57,2.54-1.55,3.96L18.13,22.46z M19.67,25.98
			c-0.35-0.33-0.65-0.71-0.87-1.11l-0.59,0.35c0.26,0.45,0.59,0.88,0.99,1.26L19.67,25.98z"/>
	</g>
	<g>
		<rect x="22.67" y="16.95" class="st3" width="0.68" height="1.36"/>
	</g>
	<g>
		<rect x="22.67" y="26.61" class="st3" width="0.68" height="1.36"/>
	</g>
	<g>
		<rect x="27.09" y="22.04" class="st3" width="1.36" height="0.68"/>
	</g>
	<g>
		<path class="st4" d="M23.01,23.44c-0.09,0-0.17-0.03-0.23-0.09l-2.11-1.97c-0.14-0.13-0.14-0.34-0.02-0.48
			c0.13-0.14,0.34-0.14,0.48-0.02l1.84,1.72l2.49-3.32c0.11-0.15,0.33-0.18,0.47-0.07c0.15,0.11,0.18,0.33,0.07,0.47l-2.72,3.62
			c-0.06,0.08-0.15,0.13-0.24,0.13C23.03,23.44,23.02,23.44,23.01,23.44z"/>
	</g>
	<g>
		<circle class="st2" cx="23.08" cy="22.8" r="0.68"/>
		<path class="st4" d="M23.08,23.82c-0.56,0-1.02-0.46-1.02-1.02c0-0.56,0.46-1.02,1.02-1.02s1.02,0.46,1.02,1.02
			C24.09,23.37,23.64,23.82,23.08,23.82z M23.08,22.46c-0.19,0-0.34,0.15-0.34,0.34c0,0.19,0.15,0.34,0.34,0.34s0.34-0.15,0.34-0.34
			C23.42,22.62,23.26,22.46,23.08,22.46z"/>
	</g>
</g>
</svg>
