<?xml version="1.0" encoding="utf-8"?>
<!-- Generator: Adobe Illustrator 27.9.0, SVG Export Plug-In . SVG Version: 6.00 Build 0)  -->
<svg version="1.1" id="레이어_1" xmlns="http://www.w3.org/2000/svg" xmlns:xlink="http://www.w3.org/1999/xlink" x="0px"
	 y="0px" width="38px" height="38px" viewBox="0 0 38 38" style="enable-background:new 0 0 38 38;" xml:space="preserve">
<style type="text/css">
	.st0{fill:#FFFFFF;}
	.st1{fill:#0044CC;}
	.st2{opacity:0.2;}
	.st3{fill:#0055FF;}
	.st4{fill-rule:evenodd;clip-rule:evenodd;fill:#FFFFFF;}
	.st5{opacity:0.8;}
	.st6{fill:#FF6B00;}
</style>
<g>
	<g>
		<path class="st0" d="M9.49,11.44v10.64c0,1.12,0.91,2.04,2.04,2.04h5.76h8.51V13.59h-7.9l-1.37-1.66
			c-0.26-0.31-0.64-0.49-1.05-0.49H9.49z"/>
		<path class="st1" d="M25.79,24.46H11.53c-1.31,0-2.38-1.07-2.38-2.38V11.44c0-0.19,0.15-0.34,0.34-0.34h5.98
			c0.51,0,0.99,0.22,1.31,0.62l1.27,1.53h7.74c0.19,0,0.34,0.15,0.34,0.34v10.53C26.13,24.3,25.98,24.46,25.79,24.46z M9.83,11.78
			v10.3c0,0.94,0.76,1.7,1.7,1.7h13.92v-9.85h-7.56c-0.1,0-0.2-0.05-0.26-0.12l-1.37-1.66c-0.19-0.24-0.48-0.37-0.79-0.37H9.83z"/>
	</g>
	<g>
		<path class="st1" d="M14.58,13.7h-2.94c-0.19,0-0.34-0.15-0.34-0.34s0.15-0.34,0.34-0.34h2.94c0.19,0,0.34,0.15,0.34,0.34
			S14.77,13.7,14.58,13.7z"/>
	</g>
	<g class="st2">
		<path class="st3" d="M12.21,16.19h9.51c0.38,0,0.68,0.3,0.68,0.68v6.79c0,0.38-0.3,0.68-0.68,0.68h-9.51
			c-0.38,0-0.68-0.3-0.68-0.68v-6.79C11.53,16.49,11.83,16.19,12.21,16.19z"/>
	</g>
	<g>
		<path class="st1" d="M19,36.91c-0.06,0-0.12-0.02-0.17-0.05L3.54,28.03c-0.11-0.06-0.17-0.17-0.17-0.29V10.08
			c0-0.12,0.06-0.23,0.17-0.29l15.29-8.83c0.1-0.06,0.23-0.06,0.34,0l15.29,8.83c0.11,0.06,0.17,0.17,0.17,0.29v17.66
			c0,0.12-0.06,0.23-0.17,0.29l-15.29,8.83C19.12,36.89,19.06,36.91,19,36.91z M4.04,27.54L19,36.18l14.96-8.63V10.27L19,1.64
			L4.04,10.27V27.54z"/>
	</g>
	<g>
		<path class="st4" d="M21.9,15.63l2.21,0.05l-0.02,0.84c0.72,0.13,1.4,0.38,2,0.75l0.88-0.83l1.54,1.6l-0.76,0.72
			c0.52,0.68,0.89,1.49,1.07,2.35l0.93,0.02l-0.05,2.21l-0.87-0.02c-0.14,0.75-0.42,1.45-0.82,2.06l0.82,0.86l-1.61,1.53l-0.75-0.78
			c-0.77,0.54-1.67,0.91-2.65,1.04l-0.02,0.94l-2.21-0.05l0.02-1.02c-0.85-0.22-1.62-0.62-2.28-1.15l-0.63,0.6l-1.54-1.6l0.75-0.71
			c-0.33-0.6-0.55-1.26-0.65-1.97l-0.86-0.02l0.05-2.21l0.93,0.02c0.2-0.81,0.58-1.55,1.08-2.18l-0.72-0.75l1.61-1.52l0.79,0.82
			c0.53-0.3,1.11-0.53,1.72-0.65L21.9,15.63z"/>
	</g>
	<g>
		<path class="st1" d="M24.11,15.68l0.34,0.01c0-0.19-0.14-0.34-0.33-0.35L24.11,15.68z M21.9,15.63l0.01-0.34
			c-0.19,0-0.34,0.14-0.35,0.33L21.9,15.63z M24.09,16.53l-0.34-0.01c0,0.17,0.12,0.31,0.28,0.34L24.09,16.53z M26.09,17.27
			l-0.17,0.29c0.13,0.08,0.3,0.06,0.41-0.04L26.09,17.27z M26.97,16.44l0.25-0.24c-0.13-0.13-0.34-0.14-0.48-0.01L26.97,16.44z
			 M28.5,18.04l0.23,0.25c0.07-0.06,0.1-0.15,0.11-0.24c0-0.09-0.03-0.18-0.09-0.24L28.5,18.04z M27.75,18.75l-0.23-0.25
			c-0.12,0.12-0.14,0.31-0.04,0.45L27.75,18.75z M28.81,21.11l-0.33,0.07c0.03,0.15,0.17,0.26,0.33,0.27L28.81,21.11z M29.75,21.13
			l0.34,0.01c0-0.19-0.14-0.35-0.33-0.35L29.75,21.13z M29.7,23.34l-0.01,0.34c0.19,0,0.34-0.15,0.35-0.33L29.7,23.34z M28.83,23.32
			l0.01-0.34c-0.17-0.01-0.31,0.11-0.34,0.28L28.83,23.32z M28.01,25.39l-0.29-0.18c-0.09,0.13-0.07,0.31,0.04,0.42L28.01,25.39z
			 M28.83,26.24l0.23,0.24c0.07-0.06,0.1-0.14,0.11-0.24c0-0.09-0.03-0.18-0.09-0.24L28.83,26.24z M27.23,27.77L26.98,28
			c0.13,0.14,0.34,0.14,0.48,0.01L27.23,27.77z M26.48,26.99l0.25-0.24c-0.12-0.12-0.3-0.14-0.44-0.04L26.48,26.99z M23.83,28.03
			l-0.04-0.34c-0.17,0.02-0.29,0.16-0.3,0.33L23.83,28.03z M23.81,28.97l-0.01,0.34c0.19,0,0.34-0.15,0.35-0.33L23.81,28.97z
			 M21.6,28.91l-0.34-0.01c0,0.09,0.03,0.18,0.09,0.24c0.06,0.06,0.15,0.1,0.24,0.1L21.6,28.91z M21.62,27.89l0.34,0.01
			c0-0.16-0.1-0.3-0.26-0.33L21.62,27.89z M19.34,26.74l0.22-0.26c-0.13-0.11-0.33-0.1-0.45,0.02L19.34,26.74z M18.71,27.34
			l-0.25,0.24c0.13,0.14,0.34,0.14,0.48,0.01L18.71,27.34z M17.18,25.74l-0.23-0.24c-0.07,0.06-0.1,0.15-0.11,0.24
			c0,0.09,0.03,0.18,0.09,0.24L17.18,25.74z M17.93,25.03l0.23,0.24c0.11-0.1,0.14-0.27,0.06-0.41L17.93,25.03z M17.28,23.06
			l0.34-0.05c-0.02-0.16-0.16-0.29-0.33-0.29L17.28,23.06z M16.41,23.04l-0.34-0.01c0,0.09,0.03,0.18,0.09,0.24
			c0.06,0.06,0.15,0.1,0.24,0.1L16.41,23.04z M16.46,20.82l0.01-0.34c-0.19,0-0.34,0.14-0.35,0.33L16.46,20.82z M17.39,20.84
			l-0.01,0.34c0.16,0.01,0.3-0.1,0.34-0.26L17.39,20.84z M18.47,18.66l0.27,0.21c0.11-0.13,0.1-0.32-0.02-0.45L18.47,18.66z
			 M17.75,17.91l-0.23-0.25c-0.07,0.06-0.1,0.15-0.11,0.24c0,0.09,0.03,0.18,0.09,0.24L17.75,17.91z M19.36,16.39l0.24-0.24
			c-0.13-0.13-0.34-0.14-0.48-0.01L19.36,16.39z M20.15,17.21l-0.25,0.24c0.11,0.11,0.28,0.14,0.41,0.06L20.15,17.21z M21.88,16.56
			l0.07,0.33c0.16-0.03,0.27-0.17,0.27-0.32L21.88,16.56z M24.12,15.34l-2.21-0.05l-0.02,0.68l2.21,0.05L24.12,15.34z M24.43,16.53
			l0.02-0.84l-0.68-0.02l-0.02,0.84L24.43,16.53z M26.27,16.98c-0.64-0.38-1.35-0.66-2.12-0.79l-0.12,0.67
			c0.68,0.12,1.32,0.36,1.88,0.7L26.27,16.98z M26.74,16.19l-0.88,0.83l0.47,0.49l0.88-0.83L26.74,16.19z M28.75,17.8l-1.53-1.6
			l-0.49,0.47l1.53,1.6L28.75,17.8z M27.98,19l0.76-0.72l-0.47-0.49l-0.76,0.72L27.98,19z M29.15,21.04
			c-0.19-0.92-0.58-1.77-1.13-2.49l-0.54,0.41c0.49,0.64,0.84,1.4,1,2.22L29.15,21.04z M28.81,21.45l0.93,0.02l0.01-0.68l-0.93-0.02
			L28.81,21.45z M29.41,21.12l-0.05,2.21l0.68,0.02l0.05-2.21L29.41,21.12z M29.7,23l-0.86-0.02l-0.02,0.68l0.86,0.02L29.7,23z
			 M28.3,25.57c0.42-0.65,0.72-1.39,0.87-2.19l-0.67-0.12c-0.13,0.71-0.4,1.36-0.77,1.94L28.3,25.57z M29.08,26.01l-0.82-0.86
			l-0.49,0.48l0.82,0.86L29.08,26.01z M27.46,28.02l1.61-1.53L28.6,26L27,27.52L27.46,28.02z M26.24,27.23L26.98,28l0.49-0.47
			l-0.75-0.78L26.24,27.23z M23.87,28.36c1.04-0.13,1.99-0.52,2.8-1.09l-0.39-0.56c-0.72,0.52-1.57,0.86-2.5,0.98L23.87,28.36z
			 M24.15,28.97l0.02-0.94l-0.68-0.01l-0.02,0.94L24.15,28.97z M21.59,29.25l2.21,0.05l0.02-0.68l-2.21-0.05L21.59,29.25z
			 M21.28,27.89l-0.02,1.02l0.68,0.01l0.02-1.02L21.28,27.89z M19.12,27c0.69,0.57,1.51,1,2.41,1.22l0.17-0.65
			c-0.8-0.2-1.53-0.58-2.15-1.09L19.12,27z M18.94,27.58l0.63-0.6l-0.47-0.49l-0.63,0.6L18.94,27.58z M16.93,25.98l1.53,1.6
			l0.49-0.48l-1.53-1.6L16.93,25.98z M17.69,24.78l-0.75,0.71l0.47,0.49l0.75-0.71L17.69,24.78z M16.94,23.11
			c0.1,0.75,0.34,1.45,0.69,2.09l0.6-0.33c-0.31-0.56-0.52-1.19-0.61-1.85L16.94,23.11z M17.28,22.72l-0.86-0.02l-0.01,0.68
			l0.86,0.02L17.28,22.72z M16.75,23.04l0.05-2.21l-0.68-0.01l-0.05,2.21L16.75,23.04z M16.46,21.16l0.93,0.02l0.02-0.68l-0.93-0.02
			L16.46,21.16z M18.21,18.45c-0.53,0.67-0.93,1.46-1.14,2.31l0.66,0.16c0.19-0.76,0.54-1.46,1.02-2.06L18.21,18.45z M17.51,18.15
			l0.72,0.75l0.49-0.47L18,17.68L17.51,18.15z M19.13,16.14l-1.61,1.52l0.47,0.49l1.61-1.52L19.13,16.14z M20.4,16.98l-0.79-0.83
			l-0.49,0.47l0.79,0.83L20.4,16.98z M21.81,16.23c-0.65,0.13-1.26,0.37-1.82,0.69l0.34,0.59c0.5-0.29,1.04-0.5,1.62-0.62
			L21.81,16.23z M21.56,15.62l-0.02,0.93l0.68,0.02l0.02-0.93L21.56,15.62z"/>
	</g>
	<g class="st5">
		<g>
			<path class="st6" d="M22.49,21.37l-0.71,2.29h-0.75l1.07-2.9h0.48L22.49,21.37z M23.07,23.66l-0.71-2.29l-0.09-0.61h0.48
				l1.07,2.9H23.07z M23.04,22.58v0.54h-1.49v-0.54H23.04z M24.78,20.76v2.9h-0.7v-2.9H24.78z"/>
		</g>
	</g>
</g>
</svg>
