<?xml version="1.0" encoding="utf-8"?>
<!-- Generator: Adobe Illustrator 27.9.0, SVG Export Plug-In . SVG Version: 6.00 Build 0)  -->
<svg version="1.1" id="레이어_1" xmlns="http://www.w3.org/2000/svg" xmlns:xlink="http://www.w3.org/1999/xlink" x="0px"
	 y="0px" width="38px" height="38px" viewBox="0 0 38 38" style="enable-background:new 0 0 38 38;" xml:space="preserve">
<style type="text/css">
	.st0{opacity:0.2;}
	.st1{fill:#0055FF;}
	.st2{fill:#0044CC;}
	.st3{opacity:0.8;}
	.st4{fill-rule:evenodd;clip-rule:evenodd;fill:#FFFFFF;}
	.st5{fill:#FF6B00;}
</style>
<g>
	<g class="st0">
		<path class="st1" d="M12.21,16.96c0-0.37,0.3-0.68,0.68-0.68h9.51c0.37,0,0.68,0.3,0.68,0.68v5.15c0,0.68-1.38,1.49-2.06,1.43
			c-1.8-0.14-4.57,0.31-8.04,0.79c-0.41,0.05-0.77-0.26-0.77-0.67V16.96z"/>
	</g>
	<g>
		<path class="st2" d="M16.28,24.55h-4.08c-1.31,0-2.38-1.07-2.38-2.38V11.53c0-0.19,0.15-0.34,0.34-0.34h5.98
			c0.51,0,0.99,0.22,1.31,0.62l1.27,1.53h7.74c0.19,0,0.34,0.15,0.34,0.34v2.26c0,0.19-0.15,0.34-0.34,0.34s-0.34-0.15-0.34-0.34
			v-1.92h-7.56c-0.1,0-0.2-0.05-0.26-0.12l-1.37-1.66c-0.19-0.24-0.48-0.37-0.79-0.37h-5.65v10.3c0,0.94,0.76,1.7,1.7,1.7h4.08
			c0.19,0,0.34,0.15,0.34,0.34S16.47,24.55,16.28,24.55z"/>
	</g>
	<g>
		<path class="st2" d="M15.26,13.79h-2.94c-0.19,0-0.34-0.15-0.34-0.34s0.15-0.34,0.34-0.34h2.94c0.19,0,0.34,0.15,0.34,0.34
			S15.45,13.79,15.26,13.79z"/>
	</g>
	<g>
		<path class="st2" d="M19,37c-0.06,0-0.12-0.02-0.17-0.05L3.54,28.12c-0.11-0.06-0.17-0.17-0.17-0.29V10.17
			c0-0.12,0.06-0.23,0.17-0.29l15.29-8.83c0.1-0.06,0.23-0.06,0.34,0l15.29,8.83c0.11,0.06,0.17,0.17,0.17,0.29v17.66
			c0,0.12-0.06,0.23-0.17,0.29l-15.29,8.83C19.12,36.98,19.06,37,19,37z M4.04,27.63L19,36.27l14.96-8.63V10.37L19,1.73L4.04,10.37
			V27.63z"/>
	</g>
	<g>
		<path class="st2" d="M29.24,27.49H16.96c-0.1,0-0.19-0.04-0.25-0.11c-0.06-0.07-0.1-0.17-0.09-0.26l0.19-1.85
			c0-0.01,0-0.01,0-0.02c0.13-0.79,0.57-1.48,1.24-1.92c0.67-0.45,1.46-0.6,2.25-0.42l1.86,0.42c0.59,0.13,1.2,0.13,1.77,0.01
			l1.89-0.43c0.79-0.18,1.6-0.03,2.28,0.41c0.68,0.44,1.13,1.13,1.28,1.92l0.19,1.19l0,0.73C29.58,27.34,29.43,27.49,29.24,27.49z
			 M17.34,26.81H28.9v-0.33l-0.18-1.13c-0.12-0.6-0.47-1.13-0.99-1.47c-0.52-0.34-1.15-0.45-1.76-0.32l-1.89,0.43
			c-0.67,0.15-1.39,0.15-2.07-0.01l-1.86-0.42c-0.6-0.14-1.21-0.02-1.72,0.32c-0.51,0.34-0.84,0.86-0.95,1.46L17.34,26.81z"/>
	</g>
	<g class="st3">
		<path class="st4" d="M19.98,18.92c0-1.64,1.33-2.97,2.97-2.97c1.64,0,2.97,1.33,2.97,2.97v0.46c0.37,0.11,0.64,0.43,0.64,0.81
			c0,0.47-0.4,0.85-0.9,0.85c0,0-0.01,0-0.01,0c0,0-0.01,0-0.01,0c-0.48,1.01-1.5,1.7-2.69,1.7c-1.19,0-2.21-0.69-2.69-1.7
			c-0.01,0-0.01,0-0.02,0c-0.5,0-0.9-0.38-0.9-0.85c0-0.38,0.27-0.71,0.64-0.81V18.92z"/>
		<path class="st5" d="M22.95,23.08c-1.21,0-2.32-0.67-2.9-1.72c-0.6-0.1-1.05-0.58-1.05-1.17c0-0.43,0.25-0.83,0.64-1.04v-0.24
			c0-1.83,1.49-3.31,3.31-3.31s3.31,1.49,3.31,3.31v0.24c0.38,0.21,0.64,0.6,0.64,1.04c0,0.59-0.45,1.08-1.05,1.17
			C25.27,22.41,24.15,23.08,22.95,23.08z M22.95,16.28c-1.45,0-2.63,1.18-2.63,2.63v0.72l-0.25,0.07c-0.23,0.07-0.39,0.27-0.39,0.48
			c0,0.28,0.25,0.51,0.56,0.51h0.21l0.11,0.19c0.43,0.91,1.37,1.5,2.38,1.5c1.01,0,1.95-0.59,2.38-1.5l0.09-0.19h0.21
			c0.33,0,0.58-0.23,0.58-0.51c0-0.22-0.16-0.42-0.39-0.48l-0.25-0.07v-0.72C25.58,17.46,24.4,16.28,22.95,16.28z"/>
	</g>
</g>
</svg>
