<?xml version="1.0" encoding="utf-8"?>
<!-- Generator: Adobe Illustrator 27.9.0, SVG Export Plug-In . SVG Version: 6.00 Build 0)  -->
<svg version="1.1" id="레이어_1" xmlns="http://www.w3.org/2000/svg" xmlns:xlink="http://www.w3.org/1999/xlink" x="0px"
	 y="0px" width="38px" height="38px" viewBox="0 0 38 38" style="enable-background:new 0 0 38 38;" xml:space="preserve">
<style type="text/css">
	.st0{fill:#0044CC;}
	.st1{opacity:0.2;}
	.st2{fill:#0055FF;}
	.st3{fill:#FFFFFF;}
	.st4{opacity:0.8;}
	.st5{fill:#FF6B00;}
	.st6{fill-rule:evenodd;clip-rule:evenodd;fill:#FFFFFF;}
</style>
<g>
	<g>
		<path class="st0" d="M35.15,35.5H2.85c-0.19,0-0.35-0.16-0.35-0.35V2.85c0-0.19,0.16-0.35,0.35-0.35h32.3
			c0.19,0,0.35,0.16,0.35,0.35v32.3C35.5,35.34,35.34,35.5,35.15,35.5z M3.2,34.8h31.6V3.2H3.2V34.8z"/>
	</g>
	<g>
		<g class="st1">
			<path class="st2" d="M8.47,12.37L19,7.06l10.53,5.31v8.1l0,0c-0.74,4.02-3.22,7.53-6.76,9.57L19,32.21l-4.34-2.35
				c-3.5-1.9-5.82-5.42-6.19-9.39l0,0V12.37z"/>
		</g>
		<g>
			<path class="st0" d="M19,32.56c-0.06,0-0.12-0.01-0.17-0.04l-4.34-2.35c-3.61-1.96-6-5.58-6.37-9.66l0-8.13
				c0-0.13,0.07-0.25,0.19-0.31l10.53-5.31c0.1-0.05,0.22-0.05,0.32,0l10.53,5.31c0.12,0.06,0.19,0.18,0.19,0.31v8.1
				c-0.77,4.2-3.3,7.78-6.94,9.87l-3.77,2.17C19.12,32.54,19.06,32.56,19,32.56z M8.82,12.59v7.88c0.35,3.82,2.6,7.23,6.01,9.08
				l4.17,2.26l3.6-2.07c3.46-1.99,5.87-5.39,6.59-9.33l-0.01-7.82L19,7.46L8.82,12.59z"/>
		</g>
	</g>
	<g>
		<path class="st3" d="M11.28,22.16l-1.4,2.81l0.7,1.05l2.11,2.46l4.21,2.46L19,31.99l1.4-0.7l4.91-3.16l2.46-2.46l-0.35-1.4
			l-1.4-2.46l-2.11-1.4h-2.11l-3.16,0.35l-2.81-0.7l-2.81,0.7L11.28,22.16z"/>
	</g>
	<g class="st4">
		<g>
			<path class="st5" d="M16.72,27.03c-0.18,0.15-0.39,0.27-0.61,0.36c-0.23,0.08-0.46,0.13-0.7,0.13c-0.19,0-0.37-0.02-0.54-0.07
				c-0.17-0.05-0.33-0.12-0.49-0.2c-0.15-0.09-0.29-0.2-0.41-0.32c-0.12-0.13-0.23-0.26-0.32-0.41c-0.09-0.15-0.16-0.31-0.21-0.48
				c-0.05-0.18-0.07-0.35-0.07-0.54c0-0.18,0.02-0.37,0.07-0.54c0.05-0.17,0.12-0.33,0.21-0.48c0.09-0.15,0.2-0.29,0.32-0.41
				c0.12-0.13,0.26-0.23,0.41-0.32c0.15-0.09,0.31-0.16,0.49-0.2c0.17-0.05,0.35-0.08,0.54-0.08c0.24,0,0.48,0.04,0.7,0.13
				c0.23,0.08,0.43,0.2,0.61,0.37l-0.42,0.68c-0.12-0.12-0.25-0.22-0.41-0.28c-0.16-0.07-0.32-0.11-0.49-0.11
				c-0.17,0-0.34,0.04-0.49,0.1c-0.15,0.07-0.28,0.15-0.4,0.27c-0.11,0.11-0.2,0.25-0.27,0.4c-0.07,0.15-0.1,0.32-0.1,0.48
				c0,0.18,0.03,0.34,0.1,0.48c0.07,0.15,0.16,0.29,0.27,0.4c0.11,0.11,0.25,0.2,0.4,0.27s0.31,0.1,0.49,0.1
				c0.17,0,0.34-0.04,0.49-0.1c0.16-0.07,0.29-0.16,0.41-0.29L16.72,27.03z M17.96,24.28v1.57h0.79c0.11,0,0.21-0.02,0.3-0.06
				c0.1-0.04,0.18-0.1,0.25-0.18c0.07-0.07,0.13-0.15,0.17-0.25c0.04-0.1,0.06-0.2,0.06-0.31c0-0.11-0.02-0.21-0.06-0.3
				c-0.04-0.1-0.1-0.18-0.17-0.25c-0.07-0.07-0.15-0.13-0.25-0.17c-0.09-0.04-0.2-0.06-0.3-0.06H17.96z M17.96,27.43h-0.79v-3.93
				h1.57c0.14,0,0.28,0.02,0.42,0.06c0.13,0.04,0.26,0.09,0.37,0.16c0.12,0.06,0.22,0.15,0.32,0.25c0.1,0.09,0.18,0.2,0.25,0.32
				c0.07,0.12,0.12,0.25,0.16,0.38c0.04,0.13,0.06,0.27,0.06,0.41c0,0.22-0.04,0.42-0.12,0.61c-0.08,0.19-0.19,0.36-0.34,0.5
				c-0.14,0.15-0.31,0.26-0.5,0.34c-0.19,0.08-0.39,0.13-0.61,0.13h-0.79V27.43z M24.64,25.47c0,0.19-0.02,0.37-0.07,0.54
				c-0.05,0.18-0.12,0.34-0.2,0.48c-0.09,0.15-0.19,0.29-0.32,0.41c-0.12,0.13-0.26,0.23-0.41,0.32c-0.15,0.08-0.31,0.15-0.49,0.2
				c-0.17,0.05-0.35,0.07-0.54,0.07c-0.19,0-0.37-0.02-0.54-0.07c-0.17-0.05-0.33-0.12-0.49-0.2c-0.15-0.09-0.29-0.2-0.41-0.32
				c-0.12-0.13-0.23-0.26-0.32-0.41c-0.09-0.15-0.16-0.31-0.21-0.48c-0.05-0.18-0.07-0.35-0.07-0.54c0-0.18,0.02-0.37,0.07-0.54
				c0.05-0.17,0.12-0.33,0.21-0.48c0.09-0.15,0.2-0.29,0.32-0.41c0.12-0.13,0.26-0.23,0.41-0.32c0.15-0.08,0.31-0.15,0.49-0.2
				c0.17-0.05,0.35-0.07,0.54-0.07c0.19,0,0.37,0.02,0.54,0.07c0.17,0.05,0.34,0.12,0.49,0.2c0.15,0.09,0.29,0.2,0.41,0.32
				c0.12,0.12,0.23,0.26,0.32,0.41c0.09,0.15,0.16,0.32,0.2,0.48C24.61,25.11,24.64,25.29,24.64,25.47z M23.85,25.47
				c0-0.17-0.03-0.33-0.1-0.48c-0.07-0.15-0.16-0.29-0.27-0.4c-0.11-0.11-0.24-0.2-0.4-0.27c-0.15-0.06-0.31-0.1-0.49-0.1
				c-0.17,0-0.34,0.04-0.49,0.1c-0.15,0.07-0.28,0.15-0.4,0.27c-0.11,0.11-0.2,0.25-0.27,0.4c-0.07,0.15-0.1,0.32-0.1,0.48
				c0,0.18,0.03,0.34,0.1,0.48c0.07,0.15,0.16,0.29,0.27,0.4c0.11,0.11,0.25,0.2,0.4,0.27c0.15,0.06,0.31,0.1,0.49,0.1
				c0.17,0,0.33-0.04,0.49-0.1c0.15-0.06,0.29-0.15,0.4-0.27c0.11-0.11,0.2-0.25,0.27-0.4C23.82,25.81,23.85,25.65,23.85,25.47z"/>
		</g>
	</g>
	<g>
		<path class="st6" d="M15.53,14.75c0-1.92,1.55-3.47,3.47-3.47s3.47,1.55,3.47,3.47v0.53c0.43,0.12,0.74,0.5,0.74,0.94
			c0,0.55-0.47,0.99-1.05,0.99c-0.01,0-0.02,0-0.03,0c-0.56,1.17-1.75,1.97-3.13,1.97s-2.57-0.81-3.13-1.97c-0.01,0-0.02,0-0.03,0
			c-0.58,0-1.05-0.44-1.05-0.99c0-0.44,0.31-0.82,0.74-0.94V14.75z"/>
		<path class="st0" d="M19,19.53c-1.39,0-2.69-0.77-3.35-1.99c-0.69-0.1-1.21-0.66-1.21-1.33c0-0.5,0.3-0.95,0.74-1.18v-0.29
			c0-2.11,1.71-3.82,3.82-3.82s3.82,1.71,3.82,3.82v0.29c0.45,0.23,0.74,0.68,0.74,1.18c0,0.68-0.53,1.24-1.21,1.33
			C21.69,18.75,20.39,19.53,19,19.53z M19,11.63c-1.72,0-3.12,1.4-3.12,3.12v0.79l-0.26,0.07c-0.29,0.08-0.49,0.33-0.49,0.6
			c0,0.35,0.32,0.64,0.7,0.64h0.22l0.12,0.2c0.52,1.08,1.62,1.77,2.82,1.77s2.3-0.7,2.82-1.77l0.1-0.2h0.22
			c0.41,0,0.73-0.29,0.73-0.64c0-0.28-0.2-0.52-0.49-0.6l-0.26-0.07v-0.79C22.12,13.03,20.72,11.63,19,11.63z"/>
	</g>
	<g>
		<path class="st0" d="M27.78,25.3c-0.17,0-0.32-0.12-0.35-0.3l-0.01-0.08c-0.23-1.49-1.09-2.8-2.36-3.59
			c-1.27-0.79-2.83-0.99-4.26-0.54c-1.16,0.36-2.44,0.35-3.6-0.04c-1.47-0.49-3.07-0.29-4.38,0.54c-1.3,0.83-2.15,2.17-2.32,3.69
			c-0.02,0.19-0.2,0.33-0.39,0.31c-0.19-0.02-0.33-0.2-0.31-0.39c0.2-1.73,1.17-3.26,2.64-4.2c1.49-0.95,3.31-1.17,4.98-0.62
			c1.02,0.34,2.15,0.35,3.17,0.03c1.63-0.51,3.39-0.29,4.84,0.62c1.45,0.91,2.43,2.39,2.69,4.08l0.01,0.08
			c0.03,0.19-0.1,0.37-0.29,0.4C27.81,25.3,27.79,25.3,27.78,25.3z"/>
	</g>
	<g>
		<path class="st0" d="M19,32.56c-0.06,0-0.12-0.01-0.17-0.04l-4.34-2.35c-3.61-1.96-6-5.58-6.37-9.66l0-8.13
			c0-0.13,0.07-0.25,0.19-0.31l10.53-5.31c0.1-0.05,0.22-0.05,0.32,0l10.53,5.31c0.12,0.06,0.19,0.18,0.19,0.31v8.1
			c-0.77,4.2-3.3,7.78-6.94,9.87l-3.77,2.17C19.12,32.54,19.06,32.56,19,32.56z M8.82,12.59v7.88c0.35,3.82,2.6,7.23,6.01,9.08
			l4.17,2.26l3.6-2.07c3.46-1.99,5.87-5.39,6.59-9.33l-0.01-7.82L19,7.46L8.82,12.59z"/>
	</g>
</g>
</svg>
