<?xml version="1.0" encoding="utf-8"?>
<!-- Generator: Adobe Illustrator 27.9.0, SVG Export Plug-In . SVG Version: 6.00 Build 0)  -->
<svg version="1.1" id="레이어_1" xmlns="http://www.w3.org/2000/svg" xmlns:xlink="http://www.w3.org/1999/xlink" x="0px"
	 y="0px" width="38px" height="38px" viewBox="0 0 38 38" style="enable-background:new 0 0 38 38;" xml:space="preserve">
<style type="text/css">
	.st0{opacity:0.2;}
	.st1{fill:#0055FF;}
	.st2{fill:#0044CC;}
	.st3{opacity:0.9;}
	.st4{fill:#FF6B00;}
</style>
<g>
	<g class="st0">
		<path class="st1" d="M14.89,16.46h3.4c0.38,0,0.68,0.3,0.68,0.68v8.83c0,0.38-0.3,0.68-0.68,0.68h-3.4c-0.38,0-0.68-0.3-0.68-0.68
			v-8.83C14.21,16.76,14.52,16.46,14.89,16.46z"/>
	</g>
	<g>
		<path class="st2" d="M18.97,37.17c-0.06,0-0.12-0.02-0.17-0.05L3.5,28.3C3.4,28.24,3.33,28.13,3.33,28V10.34
			c0-0.12,0.07-0.23,0.17-0.29l15.3-8.83c0.1-0.06,0.23-0.06,0.34,0l15.3,8.83c0.1,0.06,0.17,0.17,0.17,0.29V28
			c0,0.12-0.07,0.23-0.17,0.29l-15.3,8.83C19.09,37.16,19.03,37.17,18.97,37.17z M4.01,27.81l14.96,8.63l14.96-8.63V10.54
			L18.97,1.91L4.01,10.54V27.81z"/>
	</g>
	<g class="st3">
		<path class="st4" d="M21.65,13.48c-0.15,0-0.29-0.1-0.33-0.25l-0.2-0.76c-0.12-0.45-0.52-0.77-0.99-0.77h-2.31
			c-0.47,0-0.87,0.31-0.98,0.76l-0.2,0.76c-0.05,0.18-0.23,0.29-0.41,0.24c-0.18-0.05-0.29-0.23-0.24-0.41l0.2-0.76
			c0.19-0.75,0.86-1.27,1.64-1.27h2.31c0.77,0,1.45,0.52,1.65,1.27l0.2,0.76c0.05,0.18-0.06,0.37-0.24,0.41
			C21.71,13.48,21.68,13.48,21.65,13.48z"/>
	</g>
	<g>
		<path class="st2" d="M22.17,27.14H15.8c-0.9,0-1.63-0.68-1.7-1.57l-0.79-10.29c-0.01-0.09,0.03-0.19,0.09-0.26
			c0.06-0.07,0.15-0.11,0.25-0.11h10.66c0.09,0,0.19,0.04,0.25,0.11c0.06,0.07,0.1,0.16,0.09,0.26l-0.79,10.29
			C23.79,26.45,23.05,27.14,22.17,27.14z M14.02,15.6l0.76,9.92c0.04,0.54,0.48,0.94,1.02,0.94h6.36c0.54,0,0.97-0.41,1.01-0.94
			l0.77-9.92H14.02z"/>
	</g>
	<g>
		<path class="st2" d="M25.08,14.65c-0.19,0-0.34-0.15-0.34-0.34v-0.34c0-0.19-0.15-0.34-0.34-0.34H13.53
			c-0.19,0-0.34,0.15-0.34,0.34v0.34c0,0.19-0.15,0.34-0.34,0.34s-0.34-0.15-0.34-0.34v-0.34c0-0.56,0.46-1.02,1.02-1.02H24.4
			c0.56,0,1.02,0.46,1.02,1.02v0.34C25.42,14.5,25.27,14.65,25.08,14.65z"/>
	</g>
	<g>
		<path class="st2" d="M18.87,22.81c-0.19,0-0.34-0.15-0.34-0.34V18.7c0-0.19,0.15-0.34,0.34-0.34s0.34,0.15,0.34,0.34v3.76
			C19.21,22.65,19.05,22.81,18.87,22.81z"/>
	</g>
	<g>
		<path class="st2" d="M16.42,23.69c-0.19,0-0.34-0.15-0.34-0.34v-5.54c0-0.19,0.15-0.34,0.34-0.34s0.34,0.15,0.34,0.34v5.54
			C16.76,23.54,16.61,23.69,16.42,23.69z"/>
	</g>
	<g>
		<path class="st2" d="M21.31,23.69c-0.19,0-0.34-0.15-0.34-0.34v-5.54c0-0.19,0.15-0.34,0.34-0.34s0.34,0.15,0.34,0.34v5.54
			C21.65,23.54,21.5,23.69,21.31,23.69z"/>
	</g>
</g>
</svg>
