<?xml version="1.0" encoding="utf-8"?>
<!-- Generator: Adobe Illustrator 27.9.0, SVG Export Plug-In . SVG Version: 6.00 Build 0)  -->
<svg version="1.1" id="레이어_1" xmlns="http://www.w3.org/2000/svg" xmlns:xlink="http://www.w3.org/1999/xlink" x="0px"
	 y="0px" width="38px" height="38px" viewBox="0 0 38 38" style="enable-background:new 0 0 38 38;" xml:space="preserve">
<style type="text/css">
	.st0{opacity:0.2;}
	.st1{fill:#0055FF;}
	.st2{fill:#0044CC;}
	.st3{fill-rule:evenodd;clip-rule:evenodd;fill:#FFFFFF;}
	.st4{fill:#FFFFFF;}
	.st5{opacity:0.8;}
	.st6{fill:#FF6B00;}
</style>
<g>
	<g class="st0">
		<path class="st1" d="M12.21,16.28h9.51c0.38,0,0.68,0.3,0.68,0.68v6.79c0,0.38-0.3,0.68-0.68,0.68h-9.51
			c-0.38,0-0.68-0.3-0.68-0.68v-6.79C11.53,16.59,11.83,16.28,12.21,16.28z"/>
	</g>
	<g>
		<path class="st2" d="M14.58,24.55h-3.06c-1.31,0-2.38-1.07-2.38-2.38V11.53c0-0.19,0.15-0.34,0.34-0.34h5.98
			c0.51,0,0.99,0.22,1.31,0.62l1.27,1.53h7.74c0.19,0,0.34,0.15,0.34,0.34v2.26c0,0.19-0.15,0.34-0.34,0.34
			c-0.19,0-0.34-0.15-0.34-0.34v-1.92h-7.56c-0.1,0-0.2-0.05-0.26-0.12l-1.37-1.66c-0.19-0.24-0.48-0.37-0.79-0.37H9.83v10.3
			c0,0.94,0.76,1.7,1.7,1.7h3.06c0.19,0,0.34,0.15,0.34,0.34S14.77,24.55,14.58,24.55z"/>
	</g>
	<g>
		<path class="st2" d="M14.58,13.79h-2.94c-0.19,0-0.34-0.15-0.34-0.34s0.15-0.34,0.34-0.34h2.94c0.19,0,0.34,0.15,0.34,0.34
			S14.77,13.79,14.58,13.79z"/>
	</g>
	<g>
		<path class="st2" d="M19,37c-0.06,0-0.12-0.02-0.17-0.05L3.54,28.12c-0.11-0.06-0.17-0.17-0.17-0.29V10.17
			c0-0.12,0.06-0.23,0.17-0.29l15.29-8.83c0.1-0.06,0.23-0.06,0.34,0l15.29,8.83c0.11,0.06,0.17,0.17,0.17,0.29v17.66
			c0,0.12-0.06,0.23-0.17,0.29l-15.29,8.83C19.12,36.98,19.06,37,19,37z M4.04,27.63L19,36.27l14.96-8.63V10.37L19,1.73L4.04,10.37
			V27.63z"/>
	</g>
	<g>
		<path class="st3" d="M18.15,21.07c0-2.65,2.14-4.79,4.79-4.79c2.64,0,4.79,2.14,4.79,4.79v1.02c0.82,0.03,1.47,0.68,1.47,1.47
			c0,0.82-0.69,1.47-1.54,1.47c-0.09,0-0.17-0.01-0.26-0.02c-0.7,1.78-2.43,3.04-4.46,3.04c-2.03,0-3.76-1.26-4.46-3.04
			c-0.08,0.01-0.17,0.02-0.26,0.02c-0.85,0-1.54-0.66-1.54-1.47c0-0.79,0.65-1.43,1.47-1.47V21.07z"/>
		<path class="st2" d="M22.93,28.39c-2.04,0-3.85-1.18-4.68-3.02c-0.01,0-0.03,0-0.04,0c-1.04,0-1.88-0.81-1.88-1.81
			c0-0.86,0.62-1.59,1.47-1.77v-0.72c0-2.83,2.3-5.13,5.13-5.13s5.13,2.3,5.13,5.13v0.72c0.85,0.18,1.47,0.9,1.47,1.77
			c0,1.01-0.87,1.87-1.92,1.81C26.78,27.22,24.97,28.39,22.93,28.39z M18.69,24.63l0.1,0.25c0.67,1.72,2.3,2.83,4.14,2.83
			c1.84,0,3.47-1.11,4.14-2.83l0.1-0.25l0.27,0.04c0.71,0.11,1.41-0.43,1.41-1.12c0-0.61-0.5-1.1-1.15-1.13l-0.33-0.01v-1.34
			c0-2.45-1.99-4.45-4.45-4.45s-4.45,2-4.45,4.45v1.34l-0.33,0.01c-0.64,0.03-1.15,0.52-1.15,1.13c0,0.63,0.54,1.13,1.2,1.13
			c0.07,0,0.14-0.01,0.21-0.02L18.69,24.63z"/>
	</g>
	<g>
		<path class="st4" d="M15.6,18.87c0-0.08,0.19-0.17,0.27-0.18l0,0c2.18-0.34,4.24-0.5,6.44-0.24l2.19,0.26
			c0.13,0.02,0.23,0.13,0.23,0.26v2.75c0,3.19-2.15,5.97-5.24,6.77l0,0l0,0c-2.32-0.82-3.88-3.01-3.88-5.47V18.87z"/>
		<path class="st2" d="M19.47,28.84l-0.1-0.03c-2.46-0.86-4.11-3.19-4.11-5.79v-4.15c0-0.35,0.44-0.49,0.55-0.51
			c2.55-0.4,4.56-0.48,6.53-0.24l2.19,0.26c0.3,0.04,0.53,0.29,0.53,0.6v2.75c0,3.34-2.26,6.26-5.49,7.1L19.47,28.84z M15.94,19.02
			v4c0,2.28,1.42,4.32,3.56,5.11c2.88-0.8,4.89-3.42,4.89-6.42v-2.68l-2.12-0.25C20.37,18.56,18.42,18.64,15.94,19.02z"/>
	</g>
	<g>
		<ellipse class="st4" cx="21.72" cy="22.4" rx="2.04" ry="1.02"/>
	</g>
	<g class="st5">
		<path class="st6" d="M21.72,23.42c-0.54,0-1.05-0.11-1.44-0.3c-0.54-0.26-0.6-0.59-0.6-0.72c0-0.13,0.06-0.45,0.6-0.72
			c0.77-0.39,2.1-0.39,2.88,0c0.54,0.26,0.6,0.59,0.6,0.72c0,0.13-0.06,0.45-0.6,0.72C22.77,23.31,22.26,23.42,21.72,23.42z
			 M20.4,22.4c0.03,0.03,0.09,0.07,0.18,0.11c0.59,0.29,1.69,0.29,2.28,0c0.09-0.04,0.14-0.08,0.18-0.11
			c-0.03-0.03-0.09-0.07-0.18-0.11c-0.59-0.29-1.7-0.29-2.28,0C20.49,22.33,20.44,22.37,20.4,22.4z"/>
	</g>
	<g>
		<path class="st4" d="M18.32,22.4c0,0.56-0.91,1.02-2.04,1.02s-1.02-0.46-1.02-1.02c0-0.56-0.11-1.02,1.02-1.02
			S18.32,21.83,18.32,22.4z"/>
	</g>
	<g class="st5">
		<path class="st6" d="M16.28,23.42c-0.52,0-0.81-0.09-0.93-0.3c-0.05-0.1-0.08-0.19-0.08-0.32c0-0.08,0-0.15,0-0.24l0-0.16l0-0.15
			c0-0.1,0-0.17,0-0.24c0.01-0.13,0.03-0.22,0.07-0.31c0.13-0.22,0.42-0.32,0.94-0.32c0.54,0,1.05,0.11,1.44,0.3
			c0.54,0.26,0.6,0.59,0.6,0.72c0,0.13-0.06,0.45-0.6,0.72C17.34,23.31,16.82,23.42,16.28,23.42z M15.94,22.71
			c0.06,0.01,0.17,0.02,0.34,0.02c0.43,0,0.85-0.08,1.14-0.23c0.09-0.04,0.14-0.08,0.18-0.11c-0.03-0.03-0.09-0.07-0.18-0.11
			c-0.29-0.15-0.71-0.23-1.14-0.23c-0.18,0-0.28,0.01-0.35,0.03c0,0.05,0,0.09,0,0.14l0,0.17l0,0.16
			C15.94,22.62,15.94,22.67,15.94,22.71z"/>
	</g>
</g>
</svg>
