<?xml version="1.0" encoding="utf-8"?>
<!-- Generator: Adobe Illustrator 27.9.0, SVG Export Plug-In . SVG Version: 6.00 Build 0)  -->
<svg version="1.1" id="레이어_1" xmlns="http://www.w3.org/2000/svg" xmlns:xlink="http://www.w3.org/1999/xlink" x="0px"
	 y="0px" width="38px" height="38px" viewBox="0 0 38 38" style="enable-background:new 0 0 38 38;" xml:space="preserve">
<style type="text/css">
	.st0{opacity:0.2;}
	.st1{fill:#0055FF;}
	.st2{fill:#FFFFFF;}
	.st3{fill:#0044CC;}
	.st4{opacity:0.9;}
	.st5{opacity:0.8;}
	.st6{fill:#FF6B00;}
</style>
<g>
	<g class="st0">
		<path class="st1" d="M7.77,17.44v-3.31l2.78-2.93l0.5-0.44c0.13-0.11,0.29-0.18,0.47-0.18h0.69h11.01v4.29v12.35
			c0,1.55-1.26,2.81-2.81,2.81H7.77V17.44z"/>
	</g>
	<g>
		<path class="st2" d="M10.57,16.11V13.1l2.53-2.67l0.43-0.39c0.13-0.11,0.29-0.18,0.47-0.18h0.61h10.01v3.9v10.97
			c0,1.54-1.26,2.81-2.81,2.81H10.57V16.11z"/>
	</g>
	<g>
		<path class="st3" d="M35.15,35.5H2.85c-0.19,0-0.35-0.16-0.35-0.35V2.85c0-0.19,0.16-0.35,0.35-0.35h32.3
			c0.19,0,0.35,0.16,0.35,0.35v32.3C35.5,35.34,35.34,35.5,35.15,35.5z M3.2,34.8h31.6V3.2H3.2V34.8z"/>
	</g>
	<g>
		<path class="st3" d="M14.61,9.87V9.52h-0.35v0.35H14.61z M10.57,13.1l-0.25-0.24l-0.1,0.1v0.14H10.57z M24.27,15.18
			c0,0.19,0.16,0.35,0.35,0.35s0.35-0.16,0.35-0.35H24.27z M24.62,9.87h0.35c0-0.2-0.16-0.35-0.35-0.35V9.87z M14.61,13.29v0.35
			c0.19,0,0.35-0.15,0.35-0.35H14.61z M12.26,12.94c-0.19,0-0.35,0.16-0.35,0.35c0,0.2,0.16,0.35,0.35,0.35V12.94z M13.36,10.67
			c0.13-0.14,0.13-0.36-0.01-0.49c-0.14-0.13-0.36-0.13-0.5,0.01L13.36,10.67z M10.57,27.56h-0.35c0,0.19,0.16,0.35,0.35,0.35V27.56
			z M23.56,27.91c0.19,0,0.35-0.16,0.35-0.35c0-0.2-0.16-0.35-0.35-0.35V27.91z M10.22,13.1v3.01h0.7V13.1H10.22z M24.97,15.18V9.87
			h-0.7v5.31H24.97z M24.62,9.52H14.61v0.7h10.01V9.52z M14.26,9.87v3.42h0.7V9.87H14.26z M14.61,12.94h-2.35v0.7h2.35V12.94z
			 M10.83,13.34l2.53-2.67l-0.51-0.48l-2.53,2.67L10.83,13.34z M10.93,27.56V16.11h-0.7v11.44H10.93z M10.57,27.91h12.99v-0.7H10.57
			V27.91z"/>
	</g>
	<g class="st4">
		<g class="st5">
			<path class="st6" d="M12.76,18.53c-0.12,0-0.24-0.06-0.3-0.17c-0.1-0.17-0.05-0.38,0.12-0.48l2.73-1.64
				c0.08-0.05,0.18-0.06,0.27-0.04c0.09,0.02,0.17,0.08,0.22,0.16l0.45,0.79l2.57-1.61c0.16-0.1,0.38-0.05,0.48,0.11
				c0.1,0.16,0.05,0.38-0.11,0.48l-2.88,1.8c-0.08,0.05-0.18,0.07-0.27,0.04c-0.09-0.02-0.17-0.08-0.22-0.17l-0.46-0.79l-2.42,1.45
				C12.88,18.51,12.82,18.53,12.76,18.53z"/>
		</g>
	</g>
	<g>
		<path class="st3" d="M24.76,25.81c-0.4,0-0.8-0.05-1.19-0.16c-1.18-0.32-2.16-1.07-2.77-2.13c-1.26-2.18-0.51-4.98,1.67-6.23l0,0
			c2.18-1.26,4.98-0.51,6.23,1.67s0.51,4.98-1.67,6.23C26.33,25.61,25.55,25.81,24.76,25.81z M22.82,17.9L22.82,17.9
			c-1.84,1.06-2.48,3.43-1.41,5.28c0.52,0.89,1.35,1.53,2.34,1.8c1,0.27,2.04,0.13,2.93-0.39c1.84-1.06,2.48-3.43,1.41-5.28
			C27.04,17.47,24.67,16.84,22.82,17.9z"/>
	</g>
	<g>
		<path class="st3" d="M28.13,27.43c-0.12,0-0.24-0.06-0.3-0.18l-1.05-1.83c-0.1-0.17-0.04-0.38,0.13-0.48
			c0.17-0.1,0.38-0.04,0.48,0.13l1.05,1.83c0.1,0.17,0.04,0.38-0.13,0.48C28.25,27.42,28.18,27.43,28.13,27.43z"/>
	</g>
	<g>
		<path class="st2" d="M27.16,27.4c-0.25-0.43-0.1-0.98,0.33-1.24l0,0c0.43-0.25,0.98-0.1,1.23,0.34l0.9,1.56
			c0.25,0.44,0.1,0.98-0.33,1.24l0,0c-0.43,0.25-0.98,0.1-1.23-0.33L27.16,27.4z"/>
		<path class="st3" d="M28.85,29.76c-0.43,0-0.86-0.22-1.09-0.62l-0.9-1.57c-0.35-0.6-0.14-1.36,0.46-1.71
			c0.61-0.34,1.37-0.13,1.72,0.47l0.9,1.56c0.34,0.6,0.14,1.37-0.46,1.71C29.28,29.71,29.06,29.76,28.85,29.76z M27.94,26.39
			c-0.09,0-0.19,0.02-0.27,0.07c-0.26,0.15-0.35,0.49-0.2,0.75c0,0,0,0,0,0l0.9,1.57c0.15,0.26,0.49,0.35,0.76,0.2
			c0.26-0.15,0.35-0.49,0.2-0.76l-0.9-1.56C28.32,26.5,28.13,26.39,27.94,26.39z"/>
	</g>
	<g class="st4">
		<g class="st5">
			<path class="st6" d="M13.73,26.72c-0.19,0-0.35-0.16-0.35-0.35v-2.49c0-0.19,0.16-0.35,0.35-0.35s0.35,0.16,0.35,0.35v2.49
				C14.09,26.57,13.93,26.72,13.73,26.72z"/>
		</g>
	</g>
	<g class="st4">
		<g class="st5">
			<path class="st6" d="M15.49,26.72c-0.19,0-0.35-0.16-0.35-0.35v-5.27c0-0.19,0.16-0.35,0.35-0.35s0.35,0.16,0.35,0.35v5.27
				C15.84,26.57,15.68,26.72,15.49,26.72z"/>
		</g>
	</g>
	<g class="st4">
		<g class="st5">
			<path class="st6" d="M17.24,26.72c-0.19,0-0.35-0.16-0.35-0.35v-3.6c0-0.19,0.16-0.35,0.35-0.35c0.19,0,0.35,0.16,0.35,0.35v3.6
				C17.6,26.57,17.44,26.72,17.24,26.72z"/>
		</g>
	</g>
</g>
</svg>
