<?xml version="1.0" encoding="utf-8"?>
<!-- Generator: Adobe Illustrator 27.9.0, SVG Export Plug-In . SVG Version: 6.00 Build 0)  -->
<svg version="1.1" id="레이어_1" xmlns="http://www.w3.org/2000/svg" xmlns:xlink="http://www.w3.org/1999/xlink" x="0px"
	 y="0px" width="38px" height="38px" viewBox="0 0 38 38" style="enable-background:new 0 0 38 38;" xml:space="preserve">
<style type="text/css">
	.st0{fill:#0044CC;}
	.st1{opacity:0.2;}
	.st2{fill-rule:evenodd;clip-rule:evenodd;fill:#0055FF;}
	.st3{fill:#0055FF;}
	.st4{fill-rule:evenodd;clip-rule:evenodd;fill:#FFFFFF;}
	.st5{opacity:0.8;}
	.st6{fill:#FF6B00;}
</style>
<g>
	<g>
		<path class="st0" d="M19.05,36.86c-0.06,0-0.12-0.02-0.17-0.05L3.58,27.98c-0.11-0.06-0.17-0.17-0.17-0.29V10.02
			c0-0.12,0.06-0.23,0.17-0.29L18.88,0.9c0.1-0.06,0.23-0.06,0.34,0l15.29,8.83c0.11,0.06,0.17,0.17,0.17,0.29v17.66
			c0,0.12-0.06,0.23-0.17,0.29l-15.29,8.83C19.16,36.84,19.11,36.86,19.05,36.86z M4.09,27.49l14.96,8.63L34,27.49V10.22L19.05,1.59
			L4.09,10.22V27.49z"/>
	</g>
	<g>
		<g class="st1">
			<path class="st2" d="M9.97,13.46c0-1.52,1.23-2.75,2.75-2.75c1.52,0,2.75,1.23,2.75,2.75v0.42c0.34,0.1,0.59,0.4,0.59,0.75
				c0,0.43-0.37,0.78-0.84,0.78c-0.01,0-0.01,0-0.02,0c-0.44,0.93-1.39,1.57-2.49,1.57c-1.1,0-2.04-0.64-2.49-1.57
				c-0.01,0-0.01,0-0.02,0c-0.46,0-0.84-0.35-0.84-0.78c0-0.35,0.25-0.65,0.59-0.75V13.46z"/>
		</g>
		<g>
			<path class="st0" d="M12.72,17.31c-1.12,0-2.16-0.62-2.7-1.59c-0.56-0.09-0.98-0.55-0.98-1.11c0-0.41,0.23-0.78,0.59-0.98v-0.19
				c0-1.71,1.39-3.09,3.09-3.09s3.09,1.39,3.09,3.09v0.19c0.36,0.2,0.59,0.56,0.59,0.98c0,0.56-0.43,1.02-0.98,1.11
				C14.88,16.7,13.84,17.31,12.72,17.31z M12.72,11.04c-1.33,0-2.41,1.08-2.41,2.41v0.67l-0.25,0.07c-0.21,0.06-0.34,0.23-0.34,0.42
				c0,0.24,0.22,0.44,0.5,0.44h0.21l0.11,0.19c0.4,0.84,1.25,1.38,2.18,1.38c0.92,0,1.78-0.54,2.18-1.38L15,15.07h0.21
				c0.3,0,0.52-0.2,0.52-0.44c0-0.19-0.14-0.36-0.35-0.42l-0.25-0.07v-0.67C15.14,12.13,14.06,11.04,12.72,11.04z"/>
		</g>
	</g>
	<g>
		<g class="st1">
			<path class="st3" d="M7.74,20.3l-0.03,0.43L7.5,24.5h10.87v-0.42l-0.21-3.34l-0.01-0.13c-0.13-2.13-2.27-3.53-4.28-2.8
				l-0.11,0.04c-0.67,0.24-1.4,0.23-2.06-0.03C9.88,17.09,7.88,18.35,7.74,20.3z"/>
		</g>
		<g>
			<path class="st0" d="M18.37,24.84H7.5c-0.09,0-0.18-0.04-0.25-0.11c-0.06-0.07-0.1-0.16-0.09-0.25l0.24-4.2l0,0
				c0.07-1.04,0.62-1.96,1.51-2.51c0.88-0.55,1.95-0.65,2.92-0.26c0.58,0.23,1.23,0.24,1.82,0.03l0.11-0.04
				c1.06-0.39,2.2-0.25,3.15,0.37c0.94,0.62,1.52,1.61,1.59,2.74l0.22,3.91C18.71,24.69,18.55,24.84,18.37,24.84z M7.86,24.16h10.17
				v-0.08l-0.22-3.45c-0.06-0.9-0.52-1.71-1.28-2.21c-0.76-0.5-1.69-0.61-2.54-0.3l-0.11,0.04c-0.75,0.27-1.57,0.26-2.31-0.04
				c-0.76-0.31-1.6-0.23-2.3,0.21c-0.7,0.44-1.13,1.16-1.19,1.98l-0.03,0.44L7.86,24.16z"/>
		</g>
	</g>
	<g>
		<path class="st4" d="M22.2,13.46c0-1.52,1.23-2.75,2.75-2.75s2.75,1.23,2.75,2.75v0.42c0.34,0.1,0.59,0.4,0.59,0.75
			c0,0.43-0.37,0.78-0.84,0.78c-0.01,0-0.01,0-0.02,0c-0.44,0.93-1.39,1.57-2.49,1.57s-2.04-0.64-2.49-1.57c-0.01,0-0.01,0-0.02,0
			c-0.46,0-0.84-0.35-0.84-0.78c0-0.35,0.25-0.65,0.59-0.75V13.46z"/>
		<path class="st0" d="M24.95,17.31c-1.12,0-2.16-0.62-2.7-1.59c-0.56-0.09-0.98-0.55-0.98-1.11c0-0.41,0.23-0.78,0.59-0.98v-0.19
			c0-1.71,1.39-3.09,3.09-3.09c1.71,0,3.09,1.39,3.09,3.09v0.19c0.36,0.2,0.59,0.56,0.59,0.98c0,0.56-0.43,1.02-0.98,1.11
			C27.11,16.7,26.07,17.31,24.95,17.31z M24.95,11.04c-1.33,0-2.41,1.08-2.41,2.41v0.67l-0.25,0.07c-0.21,0.06-0.35,0.23-0.35,0.42
			c0,0.24,0.22,0.44,0.5,0.44h0.21l0.11,0.19c0.4,0.84,1.25,1.38,2.18,1.38c0.93,0,1.78-0.54,2.18-1.38l0.09-0.19h0.21
			c0.3,0,0.52-0.2,0.52-0.44c0-0.19-0.14-0.36-0.35-0.42l-0.25-0.07v-0.67C27.36,12.13,26.28,11.04,24.95,11.04z"/>
	</g>
	<g>
		<path class="st0" d="M19.73,24.84c-0.01,0-0.01,0-0.02,0c-0.19-0.01-0.33-0.17-0.32-0.36l0.24-4.2c0.07-1.04,0.62-1.96,1.51-2.51
			c0.88-0.55,1.95-0.65,2.92-0.26c0.58,0.23,1.23,0.24,1.82,0.03l0.11-0.04c1.06-0.39,2.21-0.25,3.15,0.37
			c0.94,0.62,1.52,1.61,1.59,2.74l0.22,3.68c0.01,0.19-0.13,0.35-0.32,0.36c-0.18,0.02-0.35-0.13-0.36-0.32l-0.22-3.68
			c-0.06-0.9-0.52-1.71-1.28-2.21c-0.76-0.5-1.69-0.61-2.54-0.3l-0.11,0.04c-0.75,0.27-1.57,0.26-2.31-0.04
			c-0.76-0.31-1.6-0.23-2.3,0.21c-0.7,0.44-1.13,1.16-1.19,1.98l-0.03,0.44l-0.21,3.76C20.05,24.7,19.9,24.84,19.73,24.84z"/>
	</g>
	<g>
		<path class="st0" d="M26.49,22.13c0,0.16-0.03,0.31-0.09,0.44c-0.06,0.14-0.14,0.26-0.25,0.37c-0.1,0.1-0.22,0.18-0.36,0.24
			c-0.14,0.06-0.29,0.09-0.44,0.09h-1.52v-0.76h1.52c0.05,0,0.1-0.01,0.15-0.03c0.05-0.02,0.09-0.05,0.12-0.08
			c0.04-0.03,0.06-0.07,0.08-0.12c0.02-0.05,0.03-0.1,0.03-0.15s-0.01-0.1-0.03-0.15c-0.02-0.05-0.05-0.08-0.08-0.12
			c-0.03-0.04-0.07-0.07-0.12-0.09c-0.05-0.01-0.1-0.03-0.15-0.03h-1.04v-0.76h1.04c0.05,0,0.1-0.01,0.15-0.03
			c0.05-0.02,0.09-0.05,0.12-0.08c0.04-0.03,0.06-0.07,0.08-0.12c0.02-0.05,0.03-0.1,0.03-0.15c0-0.05-0.01-0.1-0.03-0.15
			c-0.02-0.05-0.05-0.09-0.08-0.12c-0.03-0.03-0.07-0.06-0.12-0.08c-0.05-0.02-0.1-0.03-0.15-0.03h-1.52v-0.76h1.52
			c0.16,0,0.31,0.03,0.44,0.09c0.14,0.06,0.26,0.14,0.36,0.24c0.1,0.11,0.19,0.22,0.25,0.37c0.06,0.14,0.09,0.29,0.09,0.44
			c0,0.14-0.03,0.27-0.08,0.41c-0.05,0.13-0.12,0.25-0.22,0.35c0.09,0.1,0.17,0.22,0.22,0.35C26.47,21.86,26.49,21.99,26.49,22.13z"
			/>
	</g>
	<g class="st5">
		<g>
			<path class="st6" d="M24.04,26.9c0.13-0.13,0.13-0.35,0-0.48l-2.16-2.17c-0.13-0.13-0.35-0.13-0.48,0
				c-0.13,0.14-0.13,0.35,0,0.48l1.92,1.92l-1.92,1.92c-0.13,0.13-0.13,0.35,0,0.48c0.13,0.13,0.35,0.13,0.48,0L24.04,26.9z
				 M7.5,26.33c-0.19,0-0.34,0.15-0.34,0.34s0.15,0.34,0.34,0.34V26.33z M23.8,26.33H7.5v0.68h16.3V26.33z"/>
		</g>
	</g>
</g>
</svg>
