<?xml version="1.0" encoding="utf-8"?>
<!-- Generator: Adobe Illustrator 27.9.0, SVG Export Plug-In . SVG Version: 6.00 Build 0)  -->
<svg version="1.1" id="레이어_1" xmlns="http://www.w3.org/2000/svg" xmlns:xlink="http://www.w3.org/1999/xlink" x="0px"
	 y="0px" width="38px" height="38px" viewBox="0 0 38 38" style="enable-background:new 0 0 38 38;" xml:space="preserve">
<style type="text/css">
	.st0{fill:#0044CC;}
	.st1{fill-rule:evenodd;clip-rule:evenodd;fill:#FFFFFF;}
	.st2{opacity:0.1;}
	.st3{fill-rule:evenodd;clip-rule:evenodd;fill:#0055FF;}
	.st4{opacity:0.8;}
	.st5{fill:#FF6B00;}
</style>
<g>
	<g>
		<path class="st0" d="M35.15,35.5H2.85c-0.19,0-0.35-0.16-0.35-0.35V2.85c0-0.19,0.16-0.35,0.35-0.35h32.3
			c0.19,0,0.35,0.16,0.35,0.35v32.3C35.5,35.34,35.34,35.5,35.15,35.5z M3.2,34.8h31.6V3.2H3.2V34.8z"/>
	</g>
	<g>
		<path class="st1" d="M18.66,17.39h9.46v6.14v0.51v2.82l-2.6-2.82h-4.05c-1.55,0-2.81-1.26-2.81-2.81V17.39z"/>
	</g>
	<g>
		<path class="st0" d="M28.13,17.39v-0.35c0.2,0,0.35,0.16,0.35,0.35H28.13z M18.66,17.39h-0.35c0-0.19,0.15-0.35,0.35-0.35V17.39z
			 M28.13,26.86h0.35c0,0.14-0.09,0.27-0.22,0.32c-0.13,0.06-0.29,0.02-0.39-0.09L28.13,26.86z M25.52,24.04v-0.35
			c0.1,0,0.2,0.04,0.26,0.11L25.52,24.04z M28.13,17.74h-9.46v-0.7h9.46V17.74z M27.78,23.53v-6.14h0.7v6.14H27.78z M27.78,24.04
			v-0.51h0.7v0.51H27.78z M27.78,26.86v-2.82h0.7v2.82H27.78z M25.78,23.8l2.6,2.82l-0.52,0.47l-2.6-2.81L25.78,23.8z M21.47,23.69
			h4.05v0.7h-4.05V23.69z M19.01,21.23c0,1.36,1.1,2.46,2.46,2.46v0.7c-1.75,0-3.16-1.42-3.16-3.16H19.01z M19.01,17.39v3.85h-0.7
			v-3.85H19.01z"/>
	</g>
	<g class="st2">
		<path class="st3" d="M18.3,17.6h9.46v6.14v0.51v2.82l-2.6-2.82h-4.05c-1.55,0-2.81-1.26-2.81-2.81V17.6z"/>
	</g>
	<g>
		<path class="st1" d="M12.68,11.98c-1.55,0-2.81,1.26-2.81,2.81v5.96v0.73v4.02l3.72-4.02h6.99c1.55,0,2.81-1.26,2.81-2.81v-6.69
			H12.68z"/>
	</g>
	<g>
		<path class="st0" d="M9.87,25.5H9.52c0,0.15,0.09,0.27,0.22,0.32c0.13,0.06,0.29,0.02,0.39-0.08L9.87,25.5z M13.59,21.48v-0.35
			c-0.1,0-0.2,0.04-0.26,0.11L13.59,21.48z M23.39,11.98h0.35c0-0.2-0.15-0.35-0.35-0.35V11.98z M10.22,14.79
			c0-1.36,1.1-2.46,2.46-2.46v-0.7c-1.75,0-3.16,1.41-3.16,3.16H10.22z M10.22,20.75v-5.96h-0.7v5.96H10.22z M10.22,21.48v-0.73
			h-0.7v0.73H10.22z M10.22,25.5v-4.02h-0.7v4.02H10.22z M13.33,21.24l-3.72,4.02l0.52,0.48l3.71-4.02L13.33,21.24z M20.59,21.13
			h-6.99v0.7h6.99V21.13z M23.04,18.67c0,1.36-1.1,2.46-2.46,2.46v0.7c1.74,0,3.16-1.41,3.16-3.16H23.04z M23.04,11.98v6.69h0.7
			v-6.69H23.04z M12.68,12.33h10.71v-0.7H12.68V12.33z"/>
	</g>
	<g class="st4">
		<circle class="st5" cx="14.2" cy="16.64" r="0.61"/>
	</g>
	<g class="st4">
		<circle class="st5" cx="16.9" cy="16.64" r="0.61"/>
	</g>
	<g class="st4">
		<circle class="st5" cx="19.61" cy="16.64" r="0.61"/>
	</g>
</g>
</svg>
