<?xml version="1.0" encoding="utf-8"?>
<!-- Generator: Adobe Illustrator 27.9.0, SVG Export Plug-In . SVG Version: 6.00 Build 0)  -->
<svg version="1.1" id="레이어_1" xmlns="http://www.w3.org/2000/svg" xmlns:xlink="http://www.w3.org/1999/xlink" x="0px"
	 y="0px" width="38px" height="38px" viewBox="0 0 38 38" style="enable-background:new 0 0 38 38;" xml:space="preserve">
<style type="text/css">
	.st0{fill:#FFFFFF;}
	.st1{opacity:0.2;}
	.st2{fill:#0055FF;}
	.st3{fill:#0044CC;}
	.st4{opacity:0.8;}
	.st5{fill:#FF6B00;}
</style>
<g>
	<g>
		<path class="st0" d="M10.57,16.11V13.1l2.53-2.67l0.43-0.39c0.13-0.11,0.29-0.18,0.47-0.18h0.61h10.01v3.9v10.97
			c0,1.54-1.26,2.81-2.81,2.81H10.57V16.11z"/>
	</g>
	<g class="st1">
		<path class="st2" d="M7.77,17.44v-3.31l2.78-2.93l0.5-0.44c0.13-0.11,0.29-0.18,0.47-0.18h0.69h11.01v4.29v12.35
			c0,1.55-1.26,2.81-2.81,2.81H7.77V17.44z"/>
	</g>
	<g>
		<path class="st0" d="M10.57,16.11V13.1l2.53-2.67l0.43-0.39c0.13-0.11,0.29-0.18,0.47-0.18h0.61h10.01v3.9v10.97
			c0,1.54-1.26,2.81-2.81,2.81H10.57V16.11z"/>
	</g>
	<g>
		<path class="st3" d="M35.15,35.5H2.85c-0.19,0-0.35-0.16-0.35-0.35V2.85c0-0.19,0.16-0.35,0.35-0.35h32.3
			c0.19,0,0.35,0.16,0.35,0.35v32.3C35.5,35.34,35.34,35.5,35.15,35.5z M3.2,34.8h31.6V3.2H3.2V34.8z"/>
	</g>
	<g>
		<g class="st1">
			<path class="st2" d="M16.89,17.22l6.32-3.13l6.32,3.13v4.79l0,0c-0.44,2.37-1.93,4.42-4.05,5.58l-2.27,1.24l-2.62-1.36
				c-2.09-1.07-3.48-3.14-3.7-5.47l0,0V17.22z"/>
		</g>
		<g>
			<path class="st3" d="M23.21,29.18c-0.06,0-0.11-0.01-0.16-0.04l-2.62-1.35c-2.2-1.13-3.65-3.28-3.89-5.75l0-4.82
				c0-0.13,0.08-0.26,0.2-0.31l6.32-3.13c0.1-0.05,0.21-0.05,0.31,0l6.32,3.13c0.12,0.06,0.2,0.18,0.2,0.31v4.79
				c-0.47,2.54-2.01,4.67-4.23,5.89l-2.27,1.24C23.33,29.17,23.27,29.18,23.21,29.18z M17.24,17.43v4.57
				c0.21,2.19,1.52,4.13,3.51,5.16l2.46,1.27l2.11-1.15c2.03-1.12,3.45-3.07,3.87-5.34l-0.01-4.51l-5.97-2.96L17.24,17.43z"/>
		</g>
	</g>
	<g>
		<path class="st3" d="M14.61,9.87V9.52h-0.35v0.35H14.61z M10.57,13.1l-0.25-0.24l-0.1,0.1v0.14H10.57z M24.27,13.07
			c0,0.19,0.16,0.35,0.35,0.35s0.35-0.16,0.35-0.35H24.27z M24.62,9.87h0.35c0-0.2-0.16-0.35-0.35-0.35V9.87z M14.61,13.29v0.35
			c0.19,0,0.35-0.15,0.35-0.35H14.61z M12.26,12.94c-0.19,0-0.35,0.16-0.35,0.35c0,0.2,0.16,0.35,0.35,0.35V12.94z M13.36,10.67
			c0.13-0.14,0.13-0.36-0.01-0.49c-0.14-0.13-0.36-0.13-0.5,0.01L13.36,10.67z M10.57,27.56h-0.35c0,0.19,0.16,0.35,0.35,0.35V27.56
			z M17.95,27.91c0.19,0,0.35-0.16,0.35-0.35c0-0.2-0.16-0.35-0.35-0.35V27.91z M10.22,13.1v3.01h0.7V13.1H10.22z M24.97,13.07v-3.2
			h-0.7v3.2H24.97z M24.62,9.52H14.61v0.7h10.01V9.52z M14.26,9.87v3.42h0.7V9.87H14.26z M14.61,12.94h-2.35v0.7h2.35V12.94z
			 M10.83,13.34l2.53-2.67l-0.51-0.48l-2.53,2.67L10.83,13.34z M10.93,27.56V16.11h-0.7v11.44H10.93z M10.57,27.91h7.37v-0.7h-7.37
			V27.91z"/>
	</g>
	<g>
		<circle class="st0" cx="23.21" cy="21.46" r="3.86"/>
		<path class="st3" d="M23.21,25.67c-2.32,0-4.21-1.89-4.21-4.21s1.89-4.21,4.21-4.21s4.21,1.89,4.21,4.21S25.54,25.67,23.21,25.67z
			 M23.21,17.95c-1.94,0-3.51,1.57-3.51,3.51s1.57,3.51,3.51,3.51s3.51-1.57,3.51-3.51S25.15,17.95,23.21,17.95z"/>
	</g>
	<g>
		<path class="st0" d="M15.14,20.4c1.64,0.4,2.57,0.42,4.21,0v1.2v1.19c-1.64,0.55-2.57,0.55-4.21,0V20.4z"/>
		<path class="st3" d="M17.24,23.56c-0.68,0-1.36-0.14-2.21-0.43c-0.14-0.05-0.24-0.18-0.24-0.33V20.4c0-0.11,0.05-0.21,0.13-0.28
			c0.09-0.07,0.2-0.09,0.3-0.06c1.63,0.4,2.5,0.4,4.04,0c0.1-0.03,0.22,0,0.3,0.06c0.09,0.07,0.14,0.17,0.14,0.28v2.39
			c0,0.15-0.1,0.29-0.24,0.33C18.6,23.42,17.92,23.56,17.24,23.56z M15.49,22.54c1.33,0.42,2.16,0.42,3.51,0v-1.69
			c-1.27,0.29-2.18,0.28-3.51,0V22.54z"/>
	</g>
	<g>
		<path class="st0" d="M31.29,20.4c-1.64,0.4-2.57,0.42-4.21,0v1.2v1.19c1.64,0.55,2.57,0.55,4.21,0V20.4z"/>
		<path class="st3" d="M29.19,23.56c-0.68,0-1.36-0.14-2.22-0.43c-0.14-0.05-0.24-0.18-0.24-0.33V20.4c0-0.11,0.05-0.21,0.14-0.28
			c0.09-0.07,0.2-0.09,0.3-0.06c1.55,0.4,2.41,0.4,4.04,0c0.1-0.03,0.21,0,0.3,0.06c0.08,0.07,0.13,0.17,0.13,0.28v2.39
			c0,0.15-0.1,0.28-0.24,0.33C30.54,23.42,29.87,23.56,29.19,23.56z M27.43,22.54c1.35,0.42,2.18,0.42,3.51,0v-1.7
			c-1.33,0.29-2.24,0.29-3.51,0V22.54z"/>
	</g>
	<g class="st4">
		<g>
			<path class="st5" d="M22.56,20.42v1.57h0.79c0.11,0,0.21-0.02,0.3-0.06c0.09-0.04,0.18-0.1,0.25-0.18
				c0.07-0.07,0.13-0.15,0.17-0.25c0.04-0.1,0.06-0.2,0.06-0.31c0-0.11-0.02-0.21-0.06-0.3c-0.04-0.1-0.1-0.18-0.17-0.25
				c-0.07-0.07-0.15-0.13-0.25-0.17c-0.09-0.04-0.2-0.06-0.3-0.06H22.56z M22.56,23.56h-0.79v-3.93h1.57c0.14,0,0.28,0.02,0.42,0.06
				c0.13,0.04,0.26,0.09,0.37,0.16c0.12,0.06,0.22,0.15,0.32,0.25c0.1,0.09,0.18,0.2,0.25,0.32c0.07,0.12,0.12,0.25,0.16,0.38
				c0.04,0.13,0.06,0.27,0.06,0.41c0,0.22-0.04,0.42-0.12,0.61c-0.08,0.19-0.19,0.36-0.34,0.5c-0.14,0.15-0.31,0.26-0.5,0.34
				c-0.19,0.08-0.39,0.13-0.61,0.13h-0.79V23.56z"/>
		</g>
	</g>
</g>
</svg>
