<?xml version="1.0" encoding="utf-8"?>
<!-- Generator: Adobe Illustrator 27.9.0, SVG Export Plug-In . SVG Version: 6.00 Build 0)  -->
<svg version="1.1" id="레이어_1" xmlns="http://www.w3.org/2000/svg" xmlns:xlink="http://www.w3.org/1999/xlink" x="0px"
	 y="0px" width="38px" height="38px" viewBox="0 0 38 38" style="enable-background:new 0 0 38 38;" xml:space="preserve">
<style type="text/css">
	.st0{opacity:0.2;}
	.st1{fill:#0055FF;}
	.st2{fill:#FFFFFF;}
	.st3{fill:#0044CC;}
	.st4{opacity:0.6;}
	.st5{fill:#FF6B00;}
</style>
<g>
	<g class="st0">
		<path class="st1" d="M7.77,17.44v-3.31l2.78-2.93l0.5-0.44c0.13-0.11,0.29-0.18,0.47-0.18h0.69h11.01v4.29v12.35
			c0,1.55-1.26,2.81-2.81,2.81H7.77V17.44z"/>
	</g>
	<g>
		<path class="st2" d="M10.57,16.11V13.1l2.53-2.67l0.43-0.39c0.13-0.11,0.29-0.18,0.47-0.18h0.61h10.01v3.9v10.97
			c0,1.54-1.26,2.81-2.81,2.81H10.57V16.11z"/>
	</g>
	<g>
		<path class="st3" d="M35.15,35.5H2.85c-0.19,0-0.35-0.16-0.35-0.35V2.85c0-0.19,0.16-0.35,0.35-0.35h32.3
			c0.19,0,0.35,0.16,0.35,0.35v32.3C35.5,35.34,35.34,35.5,35.15,35.5z M3.2,34.8h31.6V3.2H3.2V34.8z"/>
	</g>
	<g>
		<path class="st3" d="M14.61,9.87V9.52h-0.35v0.35H14.61z M10.57,13.1l-0.25-0.24l-0.1,0.1v0.14H10.57z M24.62,9.87h0.35
			c0-0.2-0.16-0.35-0.35-0.35V9.87z M14.61,13.29v0.35c0.19,0,0.35-0.15,0.35-0.35H14.61z M12.26,12.94c-0.19,0-0.35,0.16-0.35,0.35
			c0,0.2,0.16,0.35,0.35,0.35V12.94z M13.36,10.67c0.13-0.14,0.13-0.36-0.01-0.49c-0.14-0.13-0.36-0.13-0.5,0.01L13.36,10.67z
			 M10.57,27.56h-0.35c0,0.19,0.16,0.35,0.35,0.35V27.56z M17.6,27.91c0.19,0,0.35-0.16,0.35-0.35c0-0.2-0.16-0.35-0.35-0.35V27.91z
			 M24.27,17.95c0,0.2,0.16,0.35,0.35,0.35s0.35-0.15,0.35-0.35H24.27z M10.22,13.1v3.01h0.7V13.1H10.22z M24.62,9.52H14.61v0.7
			h10.01V9.52z M14.26,9.87v3.42h0.7V9.87H14.26z M14.61,12.94h-2.35v0.7h2.35V12.94z M10.83,13.34l2.53-2.67l-0.51-0.48l-2.53,2.67
			L10.83,13.34z M10.93,27.56V16.11h-0.7v11.44H10.93z M10.57,27.91h7.02v-0.7h-7.02V27.91z M24.27,9.87v8.07h0.7V9.87H24.27z"/>
	</g>
	<g class="st4">
		<path class="st5" d="M18.3,16.54h-3.86c-0.19,0-0.35-0.16-0.35-0.35c0-0.19,0.16-0.35,0.35-0.35h3.86c0.19,0,0.35,0.16,0.35,0.35
			C18.65,16.39,18.49,16.54,18.3,16.54z"/>
	</g>
	<g class="st4">
		<path class="st5" d="M18.3,20.76h-3.86c-0.19,0-0.35-0.16-0.35-0.35c0-0.19,0.16-0.35,0.35-0.35h3.86c0.19,0,0.35,0.16,0.35,0.35
			C18.65,20.6,18.49,20.76,18.3,20.76z"/>
	</g>
	<g class="st4">
		<path class="st5" d="M20.05,18.65h-5.62c-0.19,0-0.35-0.16-0.35-0.35c0-0.19,0.16-0.35,0.35-0.35h5.62c0.19,0,0.35,0.16,0.35,0.35
			C20.4,18.49,20.25,18.65,20.05,18.65z"/>
	</g>
	<g>
		<path class="st3" d="M19.68,24.23c-0.02,0-0.04,0-0.05,0c-0.19-0.03-0.32-0.21-0.29-0.4c0.17-1.13,0.69-2.15,1.5-2.96
			c1.01-1.01,2.34-1.56,3.77-1.56c1.42,0,2.76,0.55,3.77,1.56c0.36,0.36,0.67,0.77,0.91,1.21c0.09,0.17,0.03,0.38-0.14,0.48
			c-0.17,0.09-0.38,0.03-0.48-0.14c-0.21-0.38-0.47-0.73-0.79-1.05c-0.87-0.87-2.04-1.36-3.27-1.36s-2.4,0.48-3.27,1.36
			c-0.7,0.7-1.15,1.58-1.3,2.56C20,24.11,19.85,24.23,19.68,24.23z"/>
	</g>
	<g>
		<path class="st3" d="M29.3,22.74H26.7c-0.19,0-0.35-0.16-0.35-0.35c0-0.19,0.16-0.35,0.35-0.35h2.24v-2.25
			c0-0.19,0.16-0.35,0.35-0.35c0.19,0,0.35,0.16,0.35,0.35v2.6C29.65,22.59,29.49,22.74,29.3,22.74z"/>
	</g>
	<g>
		<path class="st3" d="M24.63,29.75c-1.37,0-2.73-0.52-3.77-1.56c-0.37-0.38-0.67-0.79-0.91-1.22c-0.09-0.17-0.03-0.38,0.14-0.48
			c0.17-0.09,0.38-0.03,0.48,0.14c0.21,0.38,0.47,0.73,0.79,1.06c1.8,1.8,4.74,1.8,6.54,0c0.7-0.7,1.15-1.59,1.3-2.57
			c0.03-0.19,0.21-0.32,0.4-0.29c0.19,0.03,0.32,0.21,0.29,0.4c-0.17,1.13-0.69,2.15-1.5,2.96C27.36,29.23,26,29.75,24.63,29.75z"/>
	</g>
	<g>
		<path class="st3" d="M19.94,29.61c-0.19,0-0.35-0.16-0.35-0.35v-2.6c0-0.19,0.16-0.35,0.35-0.35h2.59c0.19,0,0.35,0.16,0.35,0.35
			c0,0.19-0.16,0.35-0.35,0.35h-2.24v2.25C20.29,29.45,20.13,29.61,19.94,29.61z"/>
	</g>
</g>
</svg>
