<svg xmlns="http://www.w3.org/2000/svg" width="65" height="65" viewBox="0 0 65 65">
  <g id="그룹_685" data-name="그룹 685" transform="translate(-1321 -4575)">
    <g id="레이어_2" data-name="레이어 2" transform="translate(1321 4575)">
      <ellipse id="타원_16" data-name="타원 16" cx="32.5" cy="32.5" rx="32.5" ry="32.5" transform="translate(0 0)" fill="#f2f2f2"/>
    </g>
    <g id="레이어_1" data-name="레이어 1" transform="translate(1335 4597.597)">
      <g id="그룹_177" data-name="그룹 177">
        <path id="패스_83" data-name="패스 83" d="M35.017,20.57,28.96,24.464s-.336,3.173,0,3.317a36.186,36.186,0,0,0,4.231,1.635c.24-.1,3.8-2.4,3.8-2.4l4.327,4.663,3.461,1.058L46.412,31.1,36.46,20.282Z" transform="translate(-13.936 -19.039)" fill="#fff" stroke="#fff" stroke-width="1"/>
        <g id="그룹_175" data-name="그룹 175">
          <path id="패스_74" data-name="패스 74" d="M179.137,22.54l4.019-3.276a2.5,2.5,0,0,0,.36-3.134L179.6,10.3a1.738,1.738,0,0,0-2.268-.464l-1.729,1a1.6,1.6,0,0,1-1.551.053,9.552,9.552,0,0,0-1.91-.753,6.044,6.044,0,0,0-5.854,1.7L163.1,15.082a2.449,2.449,0,0,0-.357,1.823h0a2.446,2.446,0,0,0,1.891,1.917l.009,0a2.442,2.442,0,0,0,2.036-.481l2.608-2.081,6.769,4.025.268.208,4,4a2.311,2.311,0,0,1-3.27,3.268l-4.142-4.265-.085.083,4.55,4.672a2.312,2.312,0,1,1-3.27,3.27l-4.548-4.674-.066.068,3.334,3.457a2.311,2.311,0,1,1-3.268,3.268l-3.48-3.58-.089.087a25.581,25.581,0,0,1,2.361,2.519,2.513,2.513,0,0,1-.7,2.389,2.314,2.314,0,0,1-3.27,0l-13.747-14.3c-1.451-1.451-4.731-3.3-3.014-5.557l4.776-4.812a2.664,2.664,0,0,1,3.051-.513l2.247,1.093a3.071,3.071,0,0,0,2.723-.015,8.532,8.532,0,0,1,6.927-.536" transform="translate(-147.133 -9.597)" fill="#fff" stroke="#333" stroke-linecap="round" stroke-miterlimit="10" stroke-width="0.5"/>
        </g>
        <g id="그룹_176" data-name="그룹 176" transform="translate(0.066 10.106)">
          <rect id="사각형_67" data-name="사각형 67" width="7.372" height="4.622" rx="2" transform="matrix(0.74, -0.672, 0.672, 0.74, 0, 4.957)" fill="#fff" stroke="#333" stroke-linecap="round" stroke-miterlimit="10" stroke-width="0.5"/>
          <rect id="사각형_68" data-name="사각형 68" width="9.807" height="4.622" rx="2" transform="matrix(0.74, -0.672, 0.672, 0.74, 2.887, 8.739)" fill="#fff" stroke="#333" stroke-linecap="round" stroke-miterlimit="10" stroke-width="0.5"/>
          <rect id="사각형_69" data-name="사각형 69" width="7.372" height="4.622" rx="2" transform="matrix(0.74, -0.672, 0.672, 0.74, 6.959, 11.411)" fill="#fff" stroke="#333" stroke-linecap="round" stroke-miterlimit="10" stroke-width="0.5"/>
          <rect id="사각형_70" data-name="사각형 70" width="4.562" height="4.622" rx="2" transform="translate(11.486 13.592) rotate(-42.248)" fill="#fff" stroke="#333" stroke-linecap="round" stroke-miterlimit="10" stroke-width="0.5"/>
        </g>
      </g>
    </g>
  </g>
</svg>
