<?xml version="1.0" encoding="utf-8"?>
<!-- Generator: Adobe Illustrator 27.9.0, SVG Export Plug-In . SVG Version: 6.00 Build 0)  -->
<svg version="1.1" id="레이어_1" xmlns="http://www.w3.org/2000/svg" xmlns:xlink="http://www.w3.org/1999/xlink" x="0px"
	 y="0px" width="38px" height="38px" viewBox="0 0 38 38" style="enable-background:new 0 0 38 38;" xml:space="preserve">
<style type="text/css">
	.st0{fill:#0044CC;}
	.st1{opacity:0.2;}
	.st2{fill-rule:evenodd;clip-rule:evenodd;fill:#0055FF;}
	.st3{fill:#0055FF;}
	.st4{fill-rule:evenodd;clip-rule:evenodd;fill:#FFFFFF;}
	.st5{opacity:0.8;}
	.st6{fill:#FF6B00;}
</style>
<g>
	<g>
		<path class="st0" d="M19,36.91c-0.06,0-0.12-0.02-0.17-0.05L3.54,28.04c-0.11-0.06-0.17-0.17-0.17-0.29V10.08
			c0-0.12,0.06-0.23,0.17-0.29l15.29-8.83c0.1-0.06,0.23-0.06,0.34,0l15.29,8.83c0.11,0.06,0.17,0.17,0.17,0.29v17.66
			c0,0.12-0.06,0.23-0.17,0.29l-15.29,8.83C19.12,36.9,19.06,36.91,19,36.91z M4.04,27.55L19,36.18l14.96-8.63V10.28L19,1.65
			L4.04,10.28V27.55z"/>
	</g>
	<g>
		<g class="st1">
			<path class="st2" d="M11.43,12.76c0-1.85,1.5-3.36,3.36-3.36s3.36,1.5,3.36,3.36v0.51c0.42,0.12,0.72,0.48,0.72,0.91
				c0,0.53-0.46,0.96-1.02,0.96c-0.01,0-0.02,0-0.03,0c-0.54,1.13-1.69,1.91-3.03,1.91c-1.34,0-2.49-0.78-3.03-1.91
				c-0.01,0-0.02,0-0.03,0c-0.56,0-1.02-0.43-1.02-0.96c0-0.43,0.3-0.79,0.72-0.91V12.76z"/>
		</g>
		<g>
			<path class="st0" d="M14.79,17.39c-1.35,0-2.6-0.75-3.25-1.93c-0.67-0.09-1.17-0.63-1.17-1.28c0-0.49,0.28-0.92,0.72-1.14v-0.28
				c0-2.04,1.66-3.7,3.7-3.7s3.7,1.66,3.7,3.7v0.28c0.44,0.22,0.72,0.65,0.72,1.14c0,0.65-0.51,1.2-1.17,1.28
				C17.39,16.64,16.14,17.39,14.79,17.39z M14.79,9.74c-1.66,0-3.02,1.35-3.02,3.02v0.76l-0.25,0.07c-0.28,0.08-0.47,0.32-0.47,0.59
				c0,0.34,0.3,0.62,0.68,0.62h0.21l0.12,0.19c0.5,1.04,1.57,1.72,2.72,1.72c1.16,0,2.22-0.67,2.72-1.72l0.1-0.21l0.23,0.02
				c0.38,0,0.68-0.28,0.68-0.62c0-0.27-0.19-0.5-0.47-0.59l-0.25-0.07v-0.76C17.81,11.1,16.45,9.74,14.79,9.74z"/>
		</g>
	</g>
	<g>
		<g class="st1">
			<path class="st3" d="M7.78,21.24l-0.04,0.6l-0.29,5.17H22.4v-0.57l-0.29-4.58l-0.01-0.18c-0.18-2.93-3.13-4.86-5.88-3.85
				l-0.15,0.05c-0.92,0.33-1.93,0.32-2.84-0.04C10.72,16.83,7.97,18.55,7.78,21.24z"/>
		</g>
		<g>
			<path class="st0" d="M22.4,27.35H7.45c-0.09,0-0.18-0.04-0.25-0.11c-0.06-0.07-0.1-0.16-0.09-0.25l0.33-5.78l0,0
				c0.1-1.39,0.83-2.61,2.01-3.35c1.18-0.74,2.6-0.87,3.9-0.35c0.83,0.33,1.75,0.35,2.6,0.04l0.15-0.05
				c1.42-0.52,2.95-0.34,4.21,0.49c1.26,0.83,2.04,2.16,2.13,3.66l0.3,4.77l0,0.59C22.74,27.2,22.58,27.35,22.4,27.35z M7.81,26.67
				h14.24v-0.23l-0.3-4.75c-0.08-1.29-0.74-2.43-1.82-3.14c-1.08-0.71-2.39-0.86-3.61-0.42l-0.15,0.05c-1,0.36-2.09,0.35-3.08-0.05
				c-1.09-0.44-2.29-0.33-3.28,0.3c-0.99,0.62-1.61,1.65-1.7,2.82l-0.04,0.6L7.81,26.67z"/>
		</g>
	</g>
	<g>
		<path class="st4" d="M22.01,12.5c0-1.52,1.23-2.75,2.75-2.75c1.52,0,2.75,1.23,2.75,2.75v0.42c0.34,0.1,0.59,0.4,0.59,0.75
			c0,0.43-0.37,0.78-0.84,0.78c-0.01,0-0.01,0-0.02,0c-0.44,0.93-1.39,1.57-2.49,1.57s-2.04-0.64-2.49-1.57c-0.01,0-0.01,0-0.02,0
			c-0.46,0-0.84-0.35-0.84-0.78c0-0.35,0.25-0.65,0.59-0.75V12.5z"/>
		<path class="st0" d="M24.77,16.35c-1.12,0-2.16-0.62-2.7-1.59c-0.56-0.09-0.98-0.55-0.98-1.11c0-0.41,0.23-0.78,0.59-0.98V12.5
			c0-1.71,1.39-3.09,3.09-3.09s3.09,1.39,3.09,3.09v0.19c0.36,0.2,0.59,0.56,0.59,0.98c0,0.56-0.43,1.02-0.98,1.11
			C26.93,15.74,25.89,16.35,24.77,16.35z M24.77,10.08c-1.33,0-2.41,1.08-2.41,2.41v0.67l-0.25,0.07c-0.21,0.06-0.35,0.23-0.35,0.42
			c0,0.24,0.22,0.44,0.5,0.44h0.21l0.11,0.19c0.4,0.84,1.26,1.38,2.18,1.38c0.93,0,1.78-0.54,2.18-1.38l0.09-0.19h0.21
			c0.3,0,0.52-0.2,0.52-0.44c0-0.19-0.14-0.36-0.34-0.42l-0.25-0.07V12.5C27.18,11.17,26.1,10.08,24.77,10.08z"/>
	</g>
	<g>
		<path class="st0" d="M30.41,23.67c-0.18,0-0.33-0.14-0.34-0.32l-0.21-3.55c-0.06-0.98-0.54-1.8-1.31-2.3
			c-0.78-0.51-1.73-0.62-2.6-0.3c-0.76,0.28-1.6,0.28-2.37,0.02L22.97,17c-1.14-0.4-2.39,0.21-2.79,1.34
			c-0.06,0.18-0.26,0.27-0.43,0.21c-0.18-0.06-0.27-0.26-0.21-0.43c0.52-1.49,2.16-2.27,3.65-1.76l0.62,0.21
			c0.62,0.21,1.3,0.21,1.91-0.02c1.08-0.39,2.25-0.26,3.21,0.37c0.95,0.63,1.54,1.63,1.61,2.77l0.21,3.61
			c0.01,0.19-0.13,0.35-0.32,0.36C30.42,23.67,30.42,23.67,30.41,23.67z"/>
	</g>
	<g>
		<path class="st0" d="M22.06,22.99c0.19,0,0.34-0.15,0.34-0.34s-0.15-0.34-0.34-0.34V22.99z M13.87,22.41
			c-0.13,0.13-0.13,0.35,0,0.48l2.16,2.17c0.13,0.13,0.35,0.13,0.48,0c0.13-0.14,0.13-0.35,0-0.48l-1.92-1.92l1.92-1.92
			c0.13-0.13,0.13-0.35,0-0.48c-0.13-0.13-0.35-0.13-0.48,0L13.87,22.41z M22.06,22.31h-7.95v0.68h7.95V22.31z"/>
	</g>
	<g class="st5">
		<g>
			<path class="st6" d="M24.43,18.91c-0.19,0-0.34,0.15-0.34,0.34c0,0.19,0.15,0.34,0.34,0.34V18.91z M22.74,22.31
				c-0.19,0-0.34,0.15-0.34,0.34s0.15,0.34,0.34,0.34V22.31z M24.43,19.59h2.04v-0.68h-2.04V19.59z M26.47,22.31h-3.74v0.68h3.74
				V22.31z M27.83,20.95c0,0.75-0.61,1.36-1.36,1.36v0.68c1.13,0,2.04-0.91,2.04-2.04H27.83z M26.47,19.59
				c0.75,0,1.36,0.61,1.36,1.36h0.68c0-1.13-0.91-2.04-2.04-2.04V19.59z"/>
		</g>
	</g>
</g>
</svg>
