<svg xmlns="http://www.w3.org/2000/svg" width="21" height="11.5" viewBox="0 0 21 11.5">
  <g id="그룹_1329" data-name="그룹 1329" transform="translate(-1328.612 -84.5)">
    <path id="선_169" data-name="선 169" d="M18,1.5H0A1.5,1.5,0,0,1-1.5,0,1.5,1.5,0,0,1,0-1.5H18A1.5,1.5,0,0,1,19.5,0,1.5,1.5,0,0,1,18,1.5Z" transform="translate(1330.112 94.5)" fill="#bcbcbc"/>
    <path id="선_170" data-name="선 170" d="M18,1.5H0A1.5,1.5,0,0,1-1.5,0,1.5,1.5,0,0,1,0-1.5H18A1.5,1.5,0,0,1,19.5,0,1.5,1.5,0,0,1,18,1.5Z" transform="translate(1330.112 86)" fill="#bcbcbc"/>
  </g>
</svg>
