<svg xmlns="http://www.w3.org/2000/svg" width="21" height="18" viewBox="0 0 21 18">
  <g id="그룹_1003" data-name="그룹 1003" transform="translate(1.5 1.5)">
    <path id="Icon_feather-chevron-down" data-name="Icon feather-chevron-down" d="M18,24a1.5,1.5,0,0,1-1.061-.439l-9-9a1.5,1.5,0,0,1,2.121-2.121L18,20.379l7.939-7.939a1.5,1.5,0,0,1,2.121,2.121l-9,9A1.5,1.5,0,0,1,18,24Z" transform="translate(-9 -7.5)" fill="#333"/>
    <path id="선_162" data-name="선 162" d="M18,1.5H0A1.5,1.5,0,0,1-1.5,0,1.5,1.5,0,0,1,0-1.5H18A1.5,1.5,0,0,1,19.5,0,1.5,1.5,0,0,1,18,1.5Z" fill="#333"/>
  </g>
</svg>
